<?xml version="1.0" encoding="UTF-8" standalone="no"?>
<!-- Created with Inkscape (http://www.inkscape.org/) -->

<svg
   xmlns:dc="http://purl.org/dc/elements/1.1/"
   xmlns:cc="http://creativecommons.org/ns#"
   xmlns:rdf="http://www.w3.org/1999/02/22-rdf-syntax-ns#"
   xmlns:svg="http://www.w3.org/2000/svg"
   xmlns="http://www.w3.org/2000/svg"
   xmlns:sodipodi="http://sodipodi.sourceforge.net/DTD/sodipodi-0.dtd"
   xmlns:inkscape="http://www.inkscape.org/namespaces/inkscape"
   width="210mm"
   height="297mm"
   viewBox="0 0 210 297"
   version="1.1"
   id="svg4545"
   inkscape:version="0.92.4 (5da689c313, 2019-01-14)"
   sodipodi:docname="bird_category.svg">
  <defs
     id="defs4539">
    <clipPath
       clipPathUnits="userSpaceOnUse"
       id="clipPath4245">
      <path
         d="m 189.868,332.734 h 40.391 v -32.308 h -40.391 z"
         id="path4243"
         inkscape:connector-curvature="0" />
    </clipPath>
    <clipPath
       clipPathUnits="userSpaceOnUse"
       id="clipPath4205">
      <path
         d="m 234.541,295.164 h 13.154 v -20.52 h -13.154 z"
         id="path4203"
         inkscape:connector-curvature="0" />
    </clipPath>
  </defs>
  <sodipodi:namedview
     id="base"
     pagecolor="#ffffff"
     bordercolor="#666666"
     borderopacity="1.0"
     inkscape:pageopacity="0.0"
     inkscape:pageshadow="2"
     inkscape:zoom="0.35"
     inkscape:cx="400"
     inkscape:cy="560"
     inkscape:document-units="mm"
     inkscape:current-layer="layer1"
     showgrid="false"
     inkscape:window-width="1920"
     inkscape:window-height="986"
     inkscape:window-x="-11"
     inkscape:window-y="-11"
     inkscape:window-maximized="1" />
  <metadata
     id="metadata4542">
    <rdf:RDF>
      <cc:Work
         rdf:about="">
        <dc:format>image/svg+xml</dc:format>
        <dc:type
           rdf:resource="http://purl.org/dc/dcmitype/StillImage" />
        <dc:title></dc:title>
      </cc:Work>
    </rdf:RDF>
  </metadata>
  <g
     inkscape:label="Layer 1"
     inkscape:groupmode="layer"
     id="layer1">
    <g
       id="g6130"
       transform="matrix(2.78385,0,0,2.78385,-486.21189,-455.86807)">
      <g
         transform="matrix(0.35277777,0,0,-0.35277777,223.31791,232.93979)"
         id="g4987">
        <path
           inkscape:connector-curvature="0"
           id="path4989"
           style="fill:#bb4345;fill-opacity:1;fill-rule:nonzero;stroke:none"
           d="m 0,0 c 0.259,-1.82 0.437,-3.637 0.61,-5.455 0.138,-1.816 0.309,-3.633 0.392,-5.448 0.232,-3.631 0.352,-7.26 0.412,-10.887 0.066,-3.626 0.049,-7.251 -0.018,-10.874 -0.034,-1.812 -0.076,-3.623 -0.145,-5.434 -0.051,-1.811 -0.147,-3.62 -0.228,-5.431 l -3.389,1.944 c 0.671,0.38 1.197,0.62 1.792,0.874 0.577,0.256 1.163,0.464 1.747,0.68 0.588,0.198 1.181,0.378 1.777,0.54 0.602,0.139 1.195,0.311 1.801,0.419 0.607,0.107 1.21,0.229 1.821,0.297 l 1.831,0.182 1.835,0.041 c 0.611,0.002 1.222,-0.051 1.829,-0.088 0.608,-0.026 1.21,-0.124 1.809,-0.222 0.598,-0.11 1.201,-0.151 1.785,-0.321 0.587,-0.148 1.173,-0.28 1.75,-0.445 0.578,-0.157 1.133,-0.404 1.694,-0.601 0.557,-0.217 1.123,-0.392 1.65,-0.674 l 1.58,-0.81 c 0.532,-0.246 1.014,-0.601 1.504,-0.921 0.487,-0.328 0.973,-0.649 1.445,-0.987 l -1.675,0.49 c -0.559,0.146 -1.081,0.37 -1.65,0.467 l -1.664,0.364 c -0.54,0.156 -1.108,0.203 -1.659,0.29 -0.557,0.067 -1.099,0.184 -1.657,0.211 -0.558,0.021 -1.106,0.075 -1.654,0.113 -0.545,0.065 -1.101,0.004 -1.647,0.014 -0.547,-0.004 -1.091,-0.006 -1.634,-0.078 -0.543,-0.061 -1.084,-0.069 -1.62,-0.149 l -1.602,-0.247 -1.579,-0.337 c -0.525,-0.114 -1.035,-0.292 -1.554,-0.421 -1.028,-0.299 -2.028,-0.676 -3.008,-1.079 -0.482,-0.215 -0.97,-0.421 -1.43,-0.662 -0.454,-0.218 -0.949,-0.509 -1.272,-0.706 l -3.431,-2.089 0.041,4.032 c 0.019,1.813 0.022,3.625 0.071,5.436 0.03,1.812 0.088,3.623 0.152,5.434 0.133,3.621 0.315,7.241 0.58,10.859 0.259,3.618 0.578,7.235 1.008,10.847 0.183,1.808 0.454,3.613 0.691,5.419 0.272,1.806 0.55,3.61 0.909,5.413" />
      </g>
      <g
         transform="matrix(0.35277777,0,0,-0.35277777,222.10213,249.61489)"
         id="g4991">
        <path
           inkscape:connector-curvature="0"
           id="path4993"
           style="fill:#bb4345;fill-opacity:1;fill-rule:nonzero;stroke:none"
           d="M 0,0 C 0.018,-0.005 -0.109,0.039 -0.086,0.044 -0.064,0.06 -0.163,0.093 -0.274,0.141 -0.395,0.171 -0.547,0.229 -0.73,0.249 -0.917,0.293 -1.125,0.288 -1.363,0.292 -1.481,0.281 -1.605,0.27 -1.733,0.258 -1.861,0.226 -1.993,0.191 -2.128,0.156 -2.275,0.138 -2.402,0.051 -2.548,-0.01 -2.692,-0.076 -2.852,-0.132 -2.987,-0.248 -3.135,-0.35 -3.286,-0.453 -3.438,-0.559 l -0.423,-0.42 c -0.317,-0.26 -0.531,-0.659 -0.81,-1.006 -0.265,-0.363 -0.449,-0.795 -0.682,-1.195 -0.226,-0.405 -0.359,-0.854 -0.541,-1.27 -0.184,-0.417 -0.311,-0.843 -0.422,-1.251 -0.119,-0.409 -0.231,-0.796 -0.335,-1.153 -0.314,-1.457 -0.507,-2.458 -0.507,-2.458 0,0 -0.097,0.997 -0.212,2.529 -0.002,0.385 -0.004,0.802 -0.006,1.243 -0.008,0.444 -0.008,0.915 0.054,1.404 0.059,0.489 0.064,1.004 0.176,1.523 0.122,0.516 0.192,1.059 0.374,1.591 0.203,0.525 0.335,1.081 0.644,1.587 0.143,0.26 0.284,0.517 0.424,0.771 0.183,0.24 0.365,0.477 0.544,0.711 0.171,0.243 0.396,0.443 0.615,0.645 0.222,0.198 0.427,0.412 0.678,0.561 0.243,0.159 0.48,0.322 0.722,0.459 0.255,0.117 0.501,0.229 0.737,0.338 0.487,0.179 0.956,0.324 1.379,0.385 0.423,0.086 0.802,0.097 1.118,0.115 C 0.411,4.547 0.654,4.545 0.904,4.506 1.077,4.484 1.169,4.473 1.169,4.473 Z" />
      </g>
      <g
         transform="matrix(0.35277777,0,0,-0.35277777,222.3314,247.78383)"
         id="g4995">
        <path
           inkscape:connector-curvature="0"
           id="path4997"
           style="fill:#bb4345;fill-opacity:1;fill-rule:nonzero;stroke:none"
           d="m 0,0 c 0,0 0.027,0.081 0.078,0.232 0.061,0.198 0.151,0.43 0.262,0.697 0.235,0.544 0.581,1.286 1.098,2.101 0.243,0.416 0.557,0.833 0.874,1.276 0.344,0.425 0.693,0.879 1.107,1.3 0.803,0.863 1.767,1.666 2.79,2.34 0.499,0.353 1.061,0.611 1.571,0.907 0.535,0.257 1.082,0.464 1.591,0.682 0.527,0.18 1.046,0.318 1.526,0.463 0.478,0.152 0.959,0.193 1.382,0.283 0.428,0.073 0.811,0.16 1.165,0.169 0.348,0.025 0.652,0.047 0.902,0.065 0.495,0.035 0.778,0.055 0.778,0.055 0,0 -0.27,-0.091 -0.741,-0.25 C 14.15,10.241 13.867,10.145 13.542,10.035 13.215,9.942 12.869,9.762 12.489,9.59 12.116,9.401 11.692,9.256 11.29,9 10.887,8.751 10.457,8.51 10.035,8.231 9.633,7.917 9.209,7.618 8.812,7.28 8.44,6.906 8.029,6.58 7.695,6.175 6.998,5.397 6.401,4.557 5.954,3.718 5.717,3.309 5.542,2.881 5.365,2.494 5.215,2.089 5.059,1.72 4.964,1.36 4.739,0.656 4.638,0.059 4.58,-0.337 4.552,-0.543 4.539,-0.684 4.543,-0.744 4.537,-0.85 4.533,-0.906 4.533,-0.906 Z" />
      </g>
      <g
         transform="matrix(0.35277777,0,0,-0.35277777,211.04561,231.67611)"
         id="g4999">
        <path
           inkscape:connector-curvature="0"
           id="path5001"
           style="fill:#bb4345;fill-opacity:1;fill-rule:nonzero;stroke:none"
           d="m 0,0 c 0.259,-1.82 0.437,-3.637 0.61,-5.454 0.138,-1.817 0.309,-3.634 0.392,-5.449 0.232,-3.631 0.352,-7.26 0.412,-10.886 0.065,-3.627 0.048,-7.252 -0.018,-10.875 C 1.361,-34.475 1.32,-36.287 1.25,-38.097 1.2,-39.908 1.104,-41.718 1.022,-43.529 l -3.388,1.944 c 0.67,0.381 1.197,0.621 1.792,0.875 0.577,0.255 1.163,0.463 1.747,0.679 0.588,0.198 1.181,0.378 1.777,0.54 0.602,0.14 1.195,0.311 1.801,0.42 0.607,0.106 1.209,0.229 1.82,0.296 l 1.831,0.182 1.836,0.042 c 0.61,0.001 1.221,-0.052 1.828,-0.089 0.608,-0.026 1.211,-0.123 1.81,-0.221 0.598,-0.11 1.201,-0.151 1.785,-0.321 0.586,-0.149 1.172,-0.28 1.75,-0.445 0.578,-0.157 1.132,-0.404 1.694,-0.602 0.557,-0.216 1.123,-0.391 1.65,-0.673 l 1.58,-0.81 c 0.532,-0.246 1.014,-0.601 1.504,-0.921 0.487,-0.329 0.973,-0.649 1.445,-0.987 l -1.675,0.489 c -0.559,0.147 -1.081,0.371 -1.651,0.468 l -1.663,0.364 c -0.54,0.155 -1.108,0.202 -1.659,0.289 -0.557,0.068 -1.1,0.185 -1.657,0.212 -0.558,0.021 -1.106,0.075 -1.654,0.112 -0.545,0.066 -1.102,0.005 -1.647,0.014 -0.547,-0.003 -1.091,-0.005 -1.635,-0.077 -0.542,-0.062 -1.083,-0.069 -1.619,-0.149 l -1.602,-0.248 -1.58,-0.336 C 6.718,-42.596 6.208,-42.775 5.689,-42.904 4.661,-43.203 3.66,-43.579 2.681,-43.982 2.198,-44.198 1.711,-44.403 1.25,-44.645 0.797,-44.862 0.301,-45.154 -0.022,-45.35 l -3.431,-2.089 0.042,4.032 c 0.018,1.812 0.022,3.625 0.07,5.436 0.03,1.811 0.089,3.622 0.153,5.433 0.133,3.621 0.315,7.242 0.58,10.859 0.259,3.618 0.578,7.235 1.008,10.848 0.183,1.807 0.454,3.612 0.691,5.418 0.272,1.806 0.55,3.61 0.909,5.413" />
      </g>
      <g
         transform="matrix(0.35277777,0,0,-0.35277777,209.82913,248.35124)"
         id="g5003">
        <path
           inkscape:connector-curvature="0"
           id="path5005"
           style="fill:#bb4345;fill-opacity:1;fill-rule:nonzero;stroke:none"
           d="M 0,0 C 0.018,-0.005 -0.109,0.039 -0.086,0.044 -0.064,0.06 -0.163,0.093 -0.274,0.141 -0.395,0.171 -0.547,0.229 -0.731,0.249 -0.917,0.294 -1.125,0.289 -1.363,0.292 -1.481,0.281 -1.605,0.27 -1.733,0.258 -1.861,0.226 -1.993,0.191 -2.128,0.157 -2.275,0.138 -2.402,0.051 -2.548,-0.01 -2.692,-0.075 -2.852,-0.132 -2.987,-0.247 -3.135,-0.35 -3.286,-0.453 -3.438,-0.559 L -3.861,-0.978 C -4.178,-1.239 -4.392,-1.638 -4.671,-1.984 -4.936,-2.347 -5.12,-2.78 -5.353,-3.179 -5.579,-3.584 -5.712,-4.034 -5.894,-4.45 -6.078,-4.867 -6.205,-5.292 -6.316,-5.7 -6.435,-6.109 -6.547,-6.496 -6.651,-6.854 -6.965,-8.31 -7.158,-9.311 -7.158,-9.311 c 0,0 -0.097,0.996 -0.212,2.529 -0.002,0.385 -0.004,0.802 -0.006,1.243 -0.008,0.444 -0.008,0.915 0.054,1.403 0.059,0.489 0.064,1.005 0.176,1.524 0.122,0.516 0.192,1.059 0.374,1.59 0.203,0.525 0.335,1.082 0.644,1.588 0.143,0.259 0.284,0.517 0.424,0.771 0.184,0.24 0.366,0.477 0.544,0.711 0.171,0.243 0.397,0.443 0.616,0.644 0.222,0.198 0.426,0.412 0.678,0.561 0.242,0.16 0.48,0.322 0.721,0.459 0.255,0.117 0.501,0.23 0.738,0.338 0.486,0.179 0.955,0.324 1.378,0.385 0.423,0.086 0.802,0.098 1.118,0.115 C 0.411,4.547 0.654,4.545 0.905,4.506 1.077,4.484 1.169,4.473 1.169,4.473 Z" />
      </g>
      <g
         transform="matrix(0.35277777,0,0,-0.35277777,210.05876,246.52018)"
         id="g5007">
        <path
           inkscape:connector-curvature="0"
           id="path5009"
           style="fill:#bb4345;fill-opacity:1;fill-rule:nonzero;stroke:none"
           d="M 0,0 C 0,0 0.027,0.081 0.078,0.233 0.139,0.43 0.229,0.663 0.34,0.93 0.575,1.473 0.921,2.216 1.438,3.03 1.681,3.446 1.995,3.864 2.312,4.307 2.656,4.731 3.005,5.185 3.419,5.606 4.222,6.47 5.186,7.272 6.209,7.946 6.708,8.3 7.27,8.558 7.78,8.853 8.315,9.11 8.862,9.317 9.371,9.535 c 0.527,0.181 1.046,0.318 1.526,0.464 0.478,0.151 0.959,0.192 1.382,0.282 0.428,0.073 0.811,0.16 1.165,0.169 0.348,0.026 0.652,0.047 0.902,0.065 0.495,0.035 0.778,0.055 0.778,0.055 0,0 -0.27,-0.091 -0.741,-0.25 C 14.15,10.241 13.867,10.145 13.542,10.035 13.215,9.942 12.869,9.762 12.489,9.59 12.116,9.402 11.692,9.256 11.29,9.001 10.887,8.752 10.457,8.511 10.035,8.232 9.633,7.917 9.209,7.618 8.812,7.281 8.44,6.906 8.029,6.581 7.695,6.175 6.998,5.397 6.401,4.557 5.954,3.719 5.717,3.31 5.542,2.882 5.365,2.495 5.215,2.089 5.059,1.72 4.964,1.361 4.739,0.657 4.638,0.059 4.58,-0.336 4.552,-0.542 4.539,-0.683 4.543,-0.744 4.537,-0.849 4.533,-0.905 4.533,-0.905 Z" />
      </g>
      <g
         transform="matrix(0.35277777,0,0,-0.35277777,231.27072,172.09663)"
         id="g5011">
        <path
           inkscape:connector-curvature="0"
           id="path5013"
           style="fill:#bb4345;fill-opacity:1;fill-rule:nonzero;stroke:none"
           d="M 0,0 36.147,9.148 13.096,-24.213 Z" />
      </g>
      <g
         transform="matrix(0.35277777,0,0,-0.35277777,240.90116,194.79587)"
         id="g5015">
        <path
           inkscape:connector-curvature="0"
           id="path5017"
           style="fill:#61aba9;fill-opacity:1;fill-rule:nonzero;stroke:none"
           d="m 0,0 c -0.067,0.181 -0.136,0.361 -0.205,0.541 -5.673,14.918 -5.101,31.544 -10.603,46.348 -1.106,2.974 -2.534,5.839 -4.437,8.541 -10.153,14.432 -25.97,23.085 -43.931,20.573 -30.126,-4.215 -43.956,-40.19 -61.629,-54.986 -17.672,-14.797 -58.817,-67.836 -34.798,-118.974 4.839,-10.299 12.109,-18.105 20.921,-23.765 -15.467,-20.551 -36.416,-49.526 -37.336,-56.853 -1.208,-9.63 8.17,-21.904 21.366,-10.494 -0.338,-1.327 -0.515,-2.418 -0.491,-3.217 0.317,-10.941 14.464,-23.345 27.049,-1.164 0.051,-0.66 0.133,-1.232 0.259,-1.682 3.207,-11.362 22.351,-20.856 27.923,10.864 2.365,13.462 3.919,33.317 4.9,50.454 29.227,-0.82 60.442,9.311 78.699,24.596 C 8.606,-91.7 12.612,-62.01 9.931,-36.453 8.536,-23.141 4.67,-12.298 0,0" />
      </g>
      <g
         transform="matrix(0.35277777,0,0,-0.35277777,225.08645,177.6224)"
         id="g5019">
        <path
           inkscape:connector-curvature="0"
           id="path5021"
           style="fill:#d8b129;fill-opacity:1;fill-rule:nonzero;stroke:none"
           d="m 0,0 c -10.142,-4.536 -17.828,-13.689 -13,-23.635 3.804,-7.833 11.046,-4.272 16.374,-0.389 4.795,3.493 8.931,7.78 13.619,11.405 2.35,1.817 18.489,7.094 16.018,11.73 C 28.173,8.191 9.319,4.167 0,0" />
      </g>
      <g
         transform="matrix(0.35277777,0,0,-0.35277777,231.81816,180.37986)"
         id="g5023">
        <path
           inkscape:connector-curvature="0"
           id="path5025"
           style="fill:#ffffff;fill-opacity:1;fill-rule:nonzero;stroke:none"
           d="m 0,0 c -0.192,-6.517 -5.63,-11.643 -12.147,-11.451 -6.517,0.194 -11.643,5.633 -11.45,12.149 0.193,6.516 5.631,11.642 12.148,11.449 C -4.932,11.954 0.193,6.516 0,0" />
      </g>
      <g
         transform="matrix(0.35277777,0,0,-0.35277777,230.69333,180.34662)"
         id="g5027">
        <path
           inkscape:connector-curvature="0"
           id="path5029"
           style="fill:#474029;fill-opacity:1;fill-rule:nonzero;stroke:none"
           d="m 0,0 c -0.141,-4.755 -4.108,-8.496 -8.864,-8.355 -4.756,0.141 -8.496,4.109 -8.355,8.865 0.141,4.754 4.108,8.495 8.864,8.354 C -3.599,8.723 0.141,4.754 0,0" />
      </g>
      <g
         transform="matrix(0.35277777,0,0,-0.35277777,200.98316,205.86822)"
         id="g5031">
        <path
           inkscape:connector-curvature="0"
           id="path5033"
           style="fill:#ffa69d;fill-opacity:1;fill-rule:nonzero;stroke:none"
           d="M 0,0 C 8.291,23.442 0.611,43.017 -5.884,53.967 -6.469,53.425 -7.058,52.9 -7.651,52.403 -25.323,37.606 -66.468,-15.433 -42.449,-66.571 -38.121,-75.785 -31.843,-82.996 -24.26,-88.467 -26.629,-64.054 -12.292,-34.753 0,0" />
      </g>
      <g
         transform="matrix(0.35277777,0,0,-0.35277777,244.40463,207.65572)"
         id="g5035">
        <path
           inkscape:connector-curvature="0"
           id="path5037"
           style="fill:#ffa69d;fill-opacity:1;fill-rule:nonzero;stroke:none"
           d="m 0,0 c -1.396,13.312 -5.261,24.155 -9.931,36.453 -0.067,0.181 -0.136,0.361 -0.205,0.541 -0.28,0.735 -0.533,1.477 -0.783,2.219 -18.076,1.124 -59.522,-1.663 -75.852,-47.689 -12.813,-36.114 -13.586,-68.77 -12.204,-88.918 28.653,-0.324 58.883,9.687 76.731,24.629 C -1.325,-55.247 2.681,-25.557 0,0" />
      </g>
      <g
         transform="matrix(0.35277777,0,0,-0.35277777,187.77519,227.45036)"
         id="g5039">
        <path
           inkscape:connector-curvature="0"
           id="path5041"
           style="fill:#de9089;fill-opacity:1;fill-rule:nonzero;stroke:none"
           d="M 0,0 C -20.057,42.703 5.323,86.724 24.532,108.704 5.262,89.286 -26.875,41.161 -5.009,-5.393 -0.681,-14.607 5.597,-21.818 13.18,-27.29 c -0.302,3.11 -0.329,6.301 -0.128,9.571 C 7.758,-12.9 3.307,-7.039 0,0" />
      </g>
      <g
         transform="matrix(0.35277777,0,0,-0.35277777,244.40463,207.65572)"
         id="g5043">
        <path
           inkscape:connector-curvature="0"
           id="path5045"
           style="fill:#de9089;fill-opacity:1;fill-rule:nonzero;stroke:none"
           d="m 0,0 c -1.396,13.312 -5.261,24.155 -9.931,36.453 -0.067,0.181 -0.136,0.361 -0.205,0.541 -0.28,0.735 -0.533,1.477 -0.783,2.219 -0.273,0.017 -0.552,0.033 -0.834,0.048 C -7.447,27.82 -3.939,17.469 -2.625,4.928 0.056,-20.63 -3.95,-50.32 -24.868,-67.837 -42.23,-82.372 -71.307,-92.239 -99.251,-92.466 c 0.076,-1.712 0.168,-3.362 0.276,-4.928 28.653,-0.324 58.883,9.687 76.731,24.629 C -1.325,-55.247 2.681,-25.557 0,0" />
      </g>
      <g
         transform="matrix(0.35277777,0,0,-0.35277777,222.13416,203.37811)"
         id="g5047">
        <path
           inkscape:connector-curvature="0"
           id="path5049"
           style="fill:#bb4345;fill-opacity:1;fill-rule:nonzero;stroke:none"
           d="m 0,0 c -0.917,-1.323 -1.744,-2.695 -2.502,-4.088 -0.763,-1.39 -1.396,-2.84 -1.888,-4.291 -0.47,-1.446 -0.741,-2.964 -0.513,-4.259 0.119,-0.64 0.349,-1.2 0.713,-1.654 0.341,-0.446 0.891,-0.839 1.375,-1.084 l 0.544,-0.257 0.394,-0.117 c 0.272,-0.066 0.593,-0.152 0.898,-0.165 0.616,-0.056 1.245,-0.015 1.884,0.124 1.278,0.282 2.56,0.908 3.762,1.717 1.211,0.799 2.338,1.792 3.422,2.83 0.542,0.522 1.068,1.065 1.576,1.624 0.498,0.549 1.016,1.159 1.422,1.692 l 4.686,6.138 -1.015,-7.772 c -0.087,-0.662 -0.153,-1.469 -0.183,-2.211 -0.031,-0.757 -0.033,-1.515 -0.004,-2.264 0.064,-1.496 0.227,-2.966 0.583,-4.314 0.361,-1.339 0.916,-2.542 1.66,-3.386 0.376,-0.419 0.796,-0.75 1.266,-1.007 0.447,-0.265 1.041,-0.425 1.554,-0.518 0.187,-0.026 0.431,-0.076 0.572,-0.085 0.119,-10e-4 0.237,-0.007 0.356,-0.017 0.26,0.007 0.577,-0.009 0.864,0.042 0.588,0.061 1.18,0.216 1.766,0.458 1.175,0.466 2.327,1.252 3.398,2.196 1.068,0.958 2.051,2.081 2.961,3.282 0.455,0.601 0.888,1.224 1.298,1.863 0.402,0.625 0.813,1.325 1.122,1.912 l 3.381,6.4 0.589,-7.084 c 0.057,-0.674 0.163,-1.463 0.279,-2.196 0.119,-0.746 0.262,-1.489 0.427,-2.224 0.324,-1.472 0.72,-2.921 1.249,-4.29 1.046,-2.708 2.682,-5.246 5.077,-5.897 0.269,-0.102 0.668,-0.123 0.87,-0.168 l 0.597,-0.015 c 0.171,0.004 0.277,0.026 0.422,0.031 0.584,0.062 1.185,0.269 1.718,0.595 1.086,0.653 1.952,1.877 2.539,3.251 0.588,1.379 1.027,2.885 1.3,4.43 0.277,1.546 0.471,3.126 0.541,4.723 0.26,-1.579 0.374,-3.191 0.343,-4.811 -0.041,-1.618 -0.187,-3.265 -0.659,-4.888 -0.46,-1.605 -1.239,-3.286 -2.74,-4.527 -0.75,-0.614 -1.653,-1.034 -2.633,-1.252 -0.249,-0.046 -0.535,-0.1 -0.76,-0.126 l -0.596,-0.047 c -0.349,-0.015 -0.509,0.012 -0.775,0.018 -0.241,0.003 -0.481,0.038 -0.721,0.082 -0.959,0.148 -1.907,0.49 -2.73,0.987 -0.829,0.49 -1.562,1.097 -2.19,1.767 -1.244,1.351 -2.152,2.871 -2.893,4.417 -0.731,1.553 -1.314,3.142 -1.77,4.754 -0.227,0.807 -0.427,1.619 -0.604,2.436 -0.175,0.83 -0.328,1.613 -0.453,2.519 l 3.971,-0.683 c -0.41,-0.873 -0.805,-1.586 -1.25,-2.349 -0.44,-0.747 -0.908,-1.478 -1.407,-2.194 -0.992,-1.436 -2.141,-2.79 -3.461,-4.04 -1.334,-1.232 -2.867,-2.374 -4.717,-3.123 -0.915,-0.382 -1.908,-0.658 -2.936,-0.778 -0.516,-0.08 -1.018,-0.081 -1.567,-0.082 l -0.862,0.056 c -0.264,0.026 -0.419,0.06 -0.634,0.09 -1.081,0.195 -2.072,0.498 -3.041,1.043 -0.954,0.525 -1.814,1.23 -2.513,2.031 -1.404,1.62 -2.131,3.505 -2.576,5.302 -0.422,1.811 -0.598,3.597 -0.577,5.35 0.005,0.877 0.048,1.746 0.123,2.611 0.078,0.88 0.175,1.693 0.343,2.637 l 3.67,-1.634 c -0.599,-0.714 -1.151,-1.298 -1.755,-1.911 -0.597,-0.6 -1.213,-1.182 -1.852,-1.743 -0.635,-0.564 -1.316,-1.083 -2.012,-1.587 -0.698,-0.503 -1.424,-0.978 -2.191,-1.407 -1.522,-0.86 -3.216,-1.573 -5.102,-1.84 -0.938,-0.14 -1.935,-0.106 -2.897,0.092 -0.49,0.087 -0.94,0.245 -1.424,0.432 l -0.719,0.332 -0.515,0.312 c -0.888,0.571 -1.594,1.227 -2.152,2.112 -0.543,0.87 -0.831,1.878 -0.87,2.83 -0.059,1.919 0.544,3.584 1.253,5.096 0.722,1.516 1.659,2.874 2.644,4.167 C -2.255,-2.314 -1.168,-1.109 0,0" />
      </g>
      <g
         transform="matrix(0.35277777,0,0,-0.35277777,219.91829,216.32562)"
         id="g5051">
        <path
           inkscape:connector-curvature="0"
           id="path5053"
           style="fill:#bb4345;fill-opacity:1;fill-rule:nonzero;stroke:none"
           d="m 0,0 c -0.41,-1.554 -0.715,-3.111 -0.865,-4.654 -0.153,-1.536 -0.146,-3.073 0.182,-4.439 0.288,-1.379 0.976,-2.485 1.933,-3.142 0.465,-0.35 1.029,-0.59 1.63,-0.768 0.594,-0.189 1.268,-0.272 1.94,-0.334 l 0.125,-0.014 0.016,-10e-4 0.008,-10e-4 c -0.187,0.018 -0.047,0.005 -0.086,0.009 l 0.037,-0.001 0.075,-10e-4 0.298,-0.005 0.597,-0.01 c 0.387,0.003 0.817,-0.031 1.17,-0.012 l 0.997,0.092 0.496,0.04 0.515,0.099 1.029,0.184 0.997,0.284 c 0.338,0.077 0.654,0.215 0.973,0.341 0.316,0.133 0.646,0.231 0.947,0.398 l 0.918,0.456 0.877,0.533 c 0.564,0.388 1.118,0.791 1.64,1.238 0.522,0.445 1.009,0.932 1.463,1.441 0.217,0.261 0.441,0.519 0.641,0.784 0.197,0.244 0.415,0.571 0.513,0.723 l 3.245,4.971 1.023,-5.706 c 0.096,-0.533 0.278,-1.233 0.452,-1.847 0.188,-0.632 0.384,-1.262 0.608,-1.881 0.227,-0.616 0.477,-1.219 0.754,-1.805 0.284,-0.575 0.553,-1.17 0.894,-1.695 0.312,-0.557 0.687,-1.044 1.052,-1.541 0.178,-0.254 0.398,-0.449 0.593,-0.681 l 0.302,-0.339 0.333,-0.284 c 0.226,-0.182 0.435,-0.403 0.674,-0.563 l 0.723,-0.472 c 0.234,-0.183 0.517,-0.239 0.773,-0.373 0.263,-0.115 0.521,-0.257 0.811,-0.3 l 0.85,-0.225 0.054,-0.015 0.027,-0.007 0.014,-0.004 c 0.131,-0.007 -0.172,0.006 -0.138,0.005 l 0.009,-0.001 0.135,-0.01 0.27,-0.019 0.54,-0.039 0.541,-0.038 c 0.163,-0.002 0.257,0.027 0.392,0.034 0.251,0.036 0.504,0.004 0.778,0.069 l 0.839,0.219 c 0.27,0.107 0.526,0.249 0.8,0.368 0.517,0.294 1.02,0.651 1.48,1.095 0.249,0.201 0.463,0.446 0.672,0.701 0.222,0.244 0.431,0.503 0.611,0.789 0.394,0.547 0.731,1.151 1.058,1.768 0.324,0.62 0.606,1.272 0.855,1.941 0.268,0.666 0.485,1.353 0.68,2.057 0.059,-0.731 0.026,-1.467 -0.03,-2.204 -0.06,-0.739 -0.186,-1.473 -0.351,-2.208 -0.162,-0.736 -0.384,-1.468 -0.699,-2.176 -0.136,-0.363 -0.31,-0.713 -0.507,-1.057 -0.183,-0.351 -0.378,-0.699 -0.629,-1.02 -0.442,-0.681 -1.049,-1.27 -1.7,-1.807 -0.348,-0.242 -0.693,-0.503 -1.063,-0.724 l -1.184,-0.542 c -0.406,-0.168 -0.884,-0.245 -1.336,-0.357 -0.222,-0.045 -0.479,-0.111 -0.675,-0.129 l -0.541,-0.033 -0.54,-0.032 -0.27,-0.016 -0.136,-0.008 -0.162,0.006 -0.02,0.003 -0.039,0.004 -0.079,0.009 -1.278,0.15 c -0.434,0.031 -0.842,0.178 -1.257,0.305 -0.406,0.145 -0.85,0.228 -1.226,0.438 l -1.162,0.587 c -0.378,0.209 -0.705,0.482 -1.059,0.725 l -0.518,0.381 -0.462,0.426 c -0.3,0.291 -0.634,0.565 -0.902,0.876 -0.55,0.617 -1.075,1.257 -1.519,1.931 -0.478,0.662 -0.861,1.36 -1.245,2.058 -0.366,0.705 -0.694,1.422 -0.992,2.148 -0.289,0.728 -0.564,1.46 -0.79,2.209 -0.226,0.77 -0.425,1.462 -0.597,2.345 l 4.267,-0.734 c -0.315,-0.526 -0.547,-0.855 -0.837,-1.238 -0.272,-0.375 -0.572,-0.714 -0.87,-1.058 -0.609,-0.67 -1.257,-1.299 -1.949,-1.877 -0.689,-0.584 -1.432,-1.102 -2.2,-1.577 l -1.185,-0.66 c -0.406,-0.199 -0.823,-0.376 -1.236,-0.561 -0.405,-0.201 -0.846,-0.316 -1.272,-0.462 -0.43,-0.14 -0.856,-0.287 -1.299,-0.368 l -1.317,-0.285 -1.33,-0.147 -0.664,-0.065 -0.695,-0.002 -1.384,0.011 c -0.44,0.018 -0.803,0.082 -1.207,0.127 l -0.592,0.073 -0.296,0.037 -0.247,0.03 -0.169,0.035 c -0.893,0.182 -1.796,0.388 -2.674,0.805 -0.872,0.396 -1.741,0.906 -2.455,1.631 -0.713,0.711 -1.272,1.575 -1.627,2.476 -0.359,0.902 -0.529,1.83 -0.57,2.723 -0.034,0.896 0.058,1.763 0.205,2.599 0.156,0.834 0.353,1.645 0.638,2.423 C -1.61,-2.81 -0.903,-1.339 0,0" />
      </g>
      <g
         transform="matrix(0.35277777,0,0,-0.35277777,221.61293,227.18941)"
         id="g5055">
        <path
           inkscape:connector-curvature="0"
           id="path5057"
           style="fill:#bb4345;fill-opacity:1;fill-rule:nonzero;stroke:none"
           d="m 0,0 c 0,0 0.094,-0.614 0.26,-1.687 0.183,-1.055 0.445,-2.545 0.902,-4.201 0.461,-1.639 1.145,-3.491 2.256,-4.846 0.559,-0.671 1.194,-1.2 1.927,-1.585 0.377,-0.181 0.77,-0.33 1.196,-0.45 0.217,-0.052 0.422,-0.127 0.657,-0.151 l 0.342,-0.058 0.085,-0.015 0.021,-0.004 c 0.047,-0.005 -0.38,0.034 -0.192,0.018 l 0.014,-0.001 0.056,-0.002 0.227,-0.008 0.905,-0.052 c 0.303,-0.02 0.634,-0.048 0.77,0.012 0.377,0.11 0.71,0.009 1.162,0.191 0.429,0.12 0.869,0.211 1.275,0.425 0.207,0.094 0.421,0.171 0.626,0.272 0.193,0.129 0.396,0.243 0.595,0.361 0.801,0.468 1.535,1.09 2.218,1.722 0.68,0.642 1.297,1.322 1.852,1.983 0.552,0.663 1.047,1.305 1.475,1.891 0.426,0.587 0.812,1.109 1.107,1.555 0.605,0.903 0.951,1.42 0.951,1.42 0,0 0.011,-0.16 0.004,-0.456 -0.016,-0.293 -0.011,-0.738 -0.092,-1.282 -0.124,-1.1 -0.411,-2.671 -1.132,-4.48 -0.365,-0.901 -0.836,-1.864 -1.468,-2.832 -0.646,-0.957 -1.422,-1.953 -2.464,-2.808 -0.259,-0.215 -0.518,-0.436 -0.791,-0.646 -0.288,-0.192 -0.6,-0.364 -0.907,-0.546 -0.316,-0.169 -0.608,-0.384 -0.954,-0.51 l -1.044,-0.376 c -0.656,-0.286 -1.554,-0.362 -2.359,-0.467 -0.459,-0.066 -0.732,-0.039 -1.032,-0.028 l -0.906,0.034 -0.226,0.013 -0.056,0.004 -0.235,0.021 -0.035,0.006 -0.137,0.025 -0.551,0.104 c -0.365,0.059 -0.733,0.179 -1.097,0.284 -0.732,0.215 -1.434,0.568 -2.102,0.956 -1.331,0.813 -2.387,1.985 -3.087,3.194 -0.718,1.213 -1.082,2.465 -1.299,3.619 -0.209,1.159 -0.247,2.239 -0.207,3.216 0.089,1.956 0.491,3.5 0.838,4.552 C -0.307,-0.561 0,0 0,0" />
      </g>
      <g
         transform="matrix(0.35277777,0,0,-0.35277777,190.58965,197.86267)"
         id="g5059">
        <path
           inkscape:connector-curvature="0"
           id="path5061"
           style="fill:#bb4345;fill-opacity:1;fill-rule:nonzero;stroke:none"
           d="m 0,0 c -0.825,-1.439 -1.55,-2.925 -2.205,-4.424 -0.639,-1.506 -1.214,-3.033 -1.572,-4.586 -0.37,-1.539 -0.564,-3.123 -0.305,-4.542 0.137,-0.703 0.364,-1.356 0.723,-1.908 0.351,-0.557 0.832,-1.012 1.398,-1.379 0.289,-0.179 0.592,-0.341 0.916,-0.479 0.078,-0.038 0.165,-0.065 0.246,-0.098 l 0.124,-0.048 0.062,-0.024 0.008,-0.003 c -0.031,0.012 0.08,-0.03 -0.067,0.025 l 0.018,-0.006 0.037,-0.01 0.593,-0.171 c 0.129,-0.008 0.254,-0.019 0.377,-0.043 l 0.45,-0.016 0.454,0.041 0.455,0.096 c 1.221,0.329 2.41,1.234 3.448,2.306 1.048,1.077 2.003,2.322 2.854,3.645 0.427,0.662 0.832,1.343 1.214,2.036 0.38,0.684 0.749,1.422 1.062,2.086 l 3.734,7.936 -0.767,-8.71 c -0.066,-0.755 -0.106,-1.584 -0.126,-2.38 -0.019,-0.803 -0.019,-1.607 0.008,-2.405 0.054,-1.595 0.21,-3.179 0.508,-4.67 0.299,-1.462 0.862,-2.927 1.685,-3.552 0.398,-0.297 0.836,-0.446 1.439,-0.404 0.593,0.041 1.275,0.277 1.936,0.606 l 0.248,0.128 0.063,0.032 c -0.059,-0.039 0.022,0.013 0.026,0.014 l 0.133,0.082 0.525,0.325 c 0.277,0.204 0.562,0.399 0.848,0.655 0.57,0.485 1.108,1.03 1.572,1.648 0.951,1.222 1.664,2.657 2.259,4.154 0.591,1.502 0.998,3.09 1.337,4.701 0.312,1.615 0.554,3.26 0.648,4.925 0.376,-3.319 0.201,-6.731 -0.651,-10.057 -0.425,-1.664 -1.09,-3.294 -2.041,-4.805 -0.469,-0.758 -1.042,-1.466 -1.68,-2.119 -0.311,-0.324 -0.689,-0.631 -1.069,-0.937 l -0.512,-0.366 -0.128,-0.09 -0.178,-0.115 -0.292,-0.181 c -0.791,-0.468 -1.67,-0.894 -2.731,-1.067 -1.041,-0.187 -2.345,0.014 -3.298,0.705 -0.958,0.668 -1.558,1.563 -1.999,2.424 -0.436,0.871 -0.731,1.751 -0.958,2.625 -0.462,1.749 -0.63,3.49 -0.72,5.213 -0.042,0.863 -0.056,1.723 -0.049,2.582 0.009,0.866 0.034,1.7 0.099,2.602 l 2.967,-0.774 c -0.381,-0.836 -0.781,-1.562 -1.209,-2.32 -0.427,-0.747 -0.878,-1.48 -1.358,-2.199 -0.967,-1.433 -2.022,-2.836 -3.335,-4.076 -1.31,-1.214 -2.862,-2.385 -4.881,-2.848 l -0.765,-0.123 -0.784,-0.032 -0.785,0.067 c -0.283,0.054 -0.564,0.122 -0.84,0.193 l -0.584,0.218 -0.15,0.057 -0.08,0.037 -0.16,0.075 c -0.107,0.053 -0.214,0.097 -0.319,0.157 -0.422,0.217 -0.833,0.474 -1.225,0.763 -0.78,0.588 -1.473,1.35 -1.94,2.232 -0.482,0.875 -0.724,1.842 -0.796,2.774 -0.133,1.877 0.284,3.619 0.863,5.231 0.608,1.609 1.375,3.118 2.263,4.541 C -2.076,-2.605 -1.09,-1.254 0,0" />
      </g>
      <g
         transform="matrix(0.35277777,0,0,-0.35277777,187.70612,208.59104)"
         id="g5063">
        <path
           inkscape:connector-curvature="0"
           id="path5065"
           style="fill:#bb4345;fill-opacity:1;fill-rule:nonzero;stroke:none"
           d="m 0,0 c 0,0 -0.127,-0.641 -0.349,-1.763 -0.201,-1.116 -0.469,-2.711 -0.6,-4.581 -0.054,-0.933 -0.061,-1.938 0.035,-2.944 0.113,-0.999 0.352,-2.02 0.817,-2.824 0.452,-0.824 1.12,-1.387 2.006,-1.744 0.23,-0.079 0.45,-0.174 0.708,-0.218 l 0.33,-0.079 c 0.145,-0.021 0.351,-0.065 0.444,-0.068 0.416,-0.046 0.963,-0.04 1.44,0.051 1.995,0.329 3.945,1.812 5.548,3.403 1.63,1.604 2.978,3.368 4.121,4.898 1.125,1.548 2.037,2.886 2.671,3.832 0.634,0.954 0.997,1.5 0.997,1.5 0,0 -0.112,-0.653 -0.435,-1.761 -0.324,-1.106 -0.842,-2.678 -1.69,-4.479 -0.418,-0.904 -0.907,-1.873 -1.514,-2.853 -0.598,-0.986 -1.277,-2.014 -2.109,-3.001 -0.828,-0.988 -1.785,-1.965 -2.95,-2.799 -1.151,-0.84 -2.547,-1.532 -4.117,-1.811 -0.8,-0.127 -1.561,-0.147 -2.425,-0.032 -0.228,0.028 -0.337,0.057 -0.51,0.086 -0.272,0.062 -0.398,0.106 -0.603,0.162 -0.373,0.088 -0.741,0.249 -1.106,0.4 -1.461,0.631 -2.725,1.922 -3.283,3.31 -0.622,1.382 -0.681,2.753 -0.655,3.964 0.033,1.221 0.267,2.317 0.524,3.299 0.52,1.965 1.24,3.468 1.775,4.492 C -0.388,-0.537 0,0 0,0" />
      </g>
      <g
         transform="matrix(0.35277777,0,0,-0.35277777,188.97633,217.06444)"
         id="g5067">
        <path
           inkscape:connector-curvature="0"
           id="path5069"
           style="fill:#bb4345;fill-opacity:1;fill-rule:nonzero;stroke:none"
           d="m 0,0 c 0,0 0.026,-1.471 -0.238,-3.667 -0.127,-1.099 -0.318,-2.382 -0.642,-3.745 -0.31,-1.367 -0.762,-2.809 -1.386,-4.223 -0.308,-0.708 -0.642,-1.419 -1.03,-2.112 -0.381,-0.695 -0.848,-1.356 -1.413,-1.92 -0.574,-0.551 -1.225,-1.021 -1.927,-1.328 -0.688,-0.329 -1.409,-0.497 -2.066,-0.566 -0.663,-0.046 -1.26,0.004 -1.763,0.124 -0.506,0.093 -0.908,0.303 -1.233,0.434 -0.628,0.355 -0.929,0.614 -0.929,0.614 l 0.085,0.3 c 0,0 0.404,0.094 1.016,0.19 0.307,0.102 0.667,0.135 1.044,0.283 0.382,0.109 0.775,0.288 1.171,0.481 0.39,0.219 0.784,0.454 1.167,0.763 0.387,0.297 0.774,0.65 1.178,1.038 0.412,0.378 0.849,0.798 1.286,1.271 0.434,0.472 0.846,1.006 1.205,1.583 1.436,2.321 2.456,5.02 3.153,7.052 0.669,2.05 1.012,3.464 1.012,3.464 z" />
      </g>
      <g
         transform="matrix(0.35277777,0,0,-0.35277777,197.64352,238.21043)"
         id="g5071">
        <path
           inkscape:connector-curvature="0"
           id="path5073"
           style="fill:#45838e;fill-opacity:1;fill-rule:nonzero;stroke:none"
           d="m 0,0 c 0,0 -0.212,-1.044 -0.679,-2.829 -0.46,-1.787 -1.179,-4.314 -2.128,-7.309 -0.957,-2.991 -2.159,-6.443 -3.552,-10.095 -0.695,-1.827 -1.433,-3.706 -2.216,-5.601 -0.769,-1.901 -1.597,-3.811 -2.42,-5.725 -0.848,-1.901 -1.688,-3.807 -2.565,-5.661 -0.857,-1.863 -1.745,-3.676 -2.613,-5.427 -1.74,-3.5 -3.463,-6.724 -5.014,-9.454 -1.559,-2.728 -2.932,-4.968 -3.936,-6.518 -0.996,-1.552 -1.622,-2.415 -1.622,-2.415 0,0 0.211,1.045 0.677,2.83 0.459,1.788 1.175,4.316 2.124,7.311 0.956,2.991 2.158,6.443 3.552,10.095 0.699,1.826 1.431,3.708 2.218,5.6 0.77,1.901 1.601,3.81 2.424,5.723 0.849,1.901 1.692,3.806 2.568,5.66 0.863,1.859 1.744,3.676 2.617,5.425 1.741,3.5 3.464,6.723 5.014,9.454 1.559,2.728 2.929,4.969 3.931,6.519 C -0.624,-0.863 0,0 0,0" />
      </g>
      <g
         transform="matrix(0.35277777,0,0,-0.35277777,197.4883,262.03274)"
         id="g5075">
        <path
           inkscape:connector-curvature="0"
           id="path5077"
           style="fill:#45838e;fill-opacity:1;fill-rule:nonzero;stroke:none"
           d="m 0,0 c 0,0 -0.029,1.035 0.023,2.828 0.045,1.793 0.175,4.343 0.424,7.385 0.257,3.039 0.649,6.568 1.181,10.327 0.264,1.881 0.559,3.819 0.893,5.782 0.321,1.965 0.697,3.952 1.066,5.942 0.397,1.982 0.785,3.967 1.22,5.911 0.415,1.947 0.87,3.855 1.32,5.699 0.905,3.687 1.854,7.108 2.749,10.025 0.902,2.915 1.733,5.33 2.36,7.011 0.62,1.682 1.035,2.632 1.035,2.632 0,0 0.031,-1.036 -0.02,-2.828 C 12.207,58.92 12.079,56.37 11.832,53.328 11.575,50.288 11.183,46.759 10.649,43 10.381,41.121 10.093,39.182 9.753,37.22 9.433,35.254 9.054,33.268 8.684,31.279 8.286,29.296 7.895,27.312 7.46,25.368 7.04,23.422 6.592,21.513 6.137,19.67 5.231,15.982 4.281,12.562 3.388,9.645 2.486,6.729 1.657,4.314 1.032,2.633 0.413,0.95 0,0 0,0" />
      </g>
    </g>
  </g>
</svg>
