<?xml version="1.0" encoding="UTF-8" standalone="no"?>
<!-- Created with Inkscape (http://www.inkscape.org/) -->

<svg
   xmlns:dc="http://purl.org/dc/elements/1.1/"
   xmlns:cc="http://creativecommons.org/ns#"
   xmlns:rdf="http://www.w3.org/1999/02/22-rdf-syntax-ns#"
   xmlns:svg="http://www.w3.org/2000/svg"
   xmlns="http://www.w3.org/2000/svg"
   xmlns:sodipodi="http://sodipodi.sourceforge.net/DTD/sodipodi-0.dtd"
   xmlns:inkscape="http://www.inkscape.org/namespaces/inkscape"
   width="210mm"
   height="297mm"
   viewBox="0 0 210 297"
   version="1.1"
   id="svg4545"
   inkscape:version="0.92.4 (5da689c313, 2019-01-14)"
   sodipodi:docname="cat_category.svg">
  <defs
     id="defs4539">
    <clipPath
       clipPathUnits="userSpaceOnUse"
       id="clipPath4245">
      <path
         d="m 189.868,332.734 h 40.391 v -32.308 h -40.391 z"
         id="path4243"
         inkscape:connector-curvature="0" />
    </clipPath>
    <clipPath
       clipPathUnits="userSpaceOnUse"
       id="clipPath4205">
      <path
         d="m 234.541,295.164 h 13.154 v -20.52 h -13.154 z"
         id="path4203"
         inkscape:connector-curvature="0" />
    </clipPath>
    <clipPath
       clipPathUnits="userSpaceOnUse"
       id="clipPath480">
      <path
         d="M 225.673,465.948 H 244.19 V 452.849 H 225.673 Z"
         id="path478"
         inkscape:connector-curvature="0" />
    </clipPath>
    <clipPath
       clipPathUnits="userSpaceOnUse"
       id="clipPath464">
      <path
         d="M 200.489,402.514 H 237.55 V 370.208 H 200.489 Z"
         id="path462"
         inkscape:connector-curvature="0" />
    </clipPath>
    <clipPath
       clipPathUnits="userSpaceOnUse"
       id="clipPath448">
      <path
         d="m 147.743,383.36 h 67.424 v -26.78 h -67.424 z"
         id="path446"
         inkscape:connector-curvature="0" />
    </clipPath>
  </defs>
  <sodipodi:namedview
     id="base"
     pagecolor="#ffffff"
     bordercolor="#666666"
     borderopacity="1.0"
     inkscape:pageopacity="0.0"
     inkscape:pageshadow="2"
     inkscape:zoom="0.35"
     inkscape:cx="400"
     inkscape:cy="560"
     inkscape:document-units="mm"
     inkscape:current-layer="layer1"
     showgrid="false"
     inkscape:window-width="1920"
     inkscape:window-height="986"
     inkscape:window-x="-11"
     inkscape:window-y="-11"
     inkscape:window-maximized="1" />
  <metadata
     id="metadata4542">
    <rdf:RDF>
      <cc:Work
         rdf:about="">
        <dc:format>image/svg+xml</dc:format>
        <dc:type
           rdf:resource="http://purl.org/dc/dcmitype/StillImage" />
        <dc:title></dc:title>
      </cc:Work>
    </rdf:RDF>
  </metadata>
  <g
     inkscape:label="Layer 1"
     inkscape:groupmode="layer"
     id="layer1">
    <g
       id="g2909"
       transform="matrix(3.0905642,0,0,3.0905642,-242.65623,-400.84268)">
      <g
         transform="matrix(0.35277777,0,0,-0.35277777,118.66676,173.47016)"
         id="g306">
        <path
           inkscape:connector-curvature="0"
           id="path308"
           style="fill:#f6871f;fill-opacity:1;fill-rule:nonzero;stroke:none"
           d="m 0,0 c 0,0 -17.484,-13.286 -35.991,-13.795 -18.506,-0.508 -34.068,5.872 -38.172,-8.662 -4.105,-14.534 15.758,-43.202 54.923,-39.502 39.166,3.699 53.368,37.883 52.825,57.835 0,0 -24.797,-2.133 -33.585,4.124" />
      </g>
      <g
         transform="matrix(0.35277777,0,0,-0.35277777,119.19423,169.56452)"
         id="g310">
        <path
           inkscape:connector-curvature="0"
           id="path312"
           style="fill:#ee3988;fill-opacity:1;fill-rule:nonzero;stroke:none"
           d="m 0,0 c 0,0 -5.845,-3.983 -3.67,-7.527 2.175,-3.544 13.156,-7.902 21.695,-7.929 8.538,-0.028 16.079,0.964 16.927,4.385 0.849,3.421 -3.232,6.308 -3.232,6.308 0,0 -25.336,0.006 -31.72,4.763" />
      </g>
      <g
         transform="matrix(0.35277777,0,0,-0.35277777,124.32588,152.74743)"
         id="g314">
        <path
           inkscape:connector-curvature="0"
           id="path316"
           style="fill:#f6871f;fill-opacity:1;fill-rule:nonzero;stroke:none"
           d="m 0,0 c -6.211,-2.321 -9.425,-3.522 -9.425,-3.522 0,0 -15.05,9.745 -15.759,7.51 -0.709,-2.236 -1.145,-17.933 1.909,-23.555 0,0 -7.75,-12.458 -13.869,-13.471 0,0 17.769,-22.121 41.097,-22.024 23.328,0.096 41.058,15.554 41.941,28.74 0,0 -12.79,10.441 -12.199,12.583 0.59,2.143 -0.591,-2.142 -0.591,-2.142 0,0 4.329,27.305 0.595,26.325 C 29.964,9.465 16.485,-2.634 16.485,-2.634 16.485,-2.634 9.425,3.522 0,0" />
      </g>
      <g
         transform="matrix(0.35277777,0,0,-0.35277777,123.10682,164.13354)"
         id="g318">
        <path
           inkscape:connector-curvature="0"
           id="path320"
           style="fill:#f05b79;fill-opacity:1;fill-rule:nonzero;stroke:none"
           d="m 0,0 c -0.421,3.297 -3.435,5.628 -6.732,5.207 -3.297,-0.421 -5.628,-3.435 -5.207,-6.732 0.421,-3.297 3.435,-5.628 6.732,-5.207 C -1.91,-6.311 0.421,-3.297 0,0" />
      </g>
      <g
         transform="matrix(0.35277777,0,0,-0.35277777,134.31622,164.13354)"
         id="g322">
        <path
           inkscape:connector-curvature="0"
           id="path324"
           style="fill:#f05b79;fill-opacity:1;fill-rule:nonzero;stroke:none"
           d="m 0,0 c -0.421,3.297 -3.435,5.628 -6.732,5.207 -3.297,-0.421 -5.628,-3.435 -5.207,-6.732 0.421,-3.297 3.435,-5.628 6.732,-5.207 C -1.91,-6.311 0.421,-3.297 0,0" />
      </g>
      <g
         transform="matrix(0.35277777,0,0,-0.35277777,125.25439,152.46676)"
         id="g326">
        <path
           inkscape:connector-curvature="0"
           id="path328"
           style="fill:#322824;fill-opacity:1;fill-rule:nonzero;stroke:none"
           d="m 0,0 c 1.112,0.059 2.223,0.189 3.343,0.153 1.119,0.031 2.235,-0.079 3.354,-0.16 1.111,-0.162 2.225,-0.31 3.322,-0.573 0.555,-0.104 1.099,-0.252 1.637,-0.421 0.541,-0.162 1.089,-0.306 1.612,-0.522 1.07,-0.371 2.095,-0.849 3.119,-1.335 0.995,-0.537 1.99,-1.08 2.93,-1.709 0.486,-0.293 0.937,-0.631 1.396,-0.96 0.461,-0.327 0.919,-0.659 1.351,-1.019 0.893,-0.693 1.716,-1.459 2.548,-2.214 0.802,-0.784 1.613,-1.556 2.377,-2.386 0.789,-0.82 1.512,-1.631 2.231,-2.467 l 2.137,-2.484 c 0.717,-0.816 1.419,-1.646 2.161,-2.437 0.727,-0.807 1.487,-1.579 2.253,-2.344 0.768,-0.763 1.561,-1.499 2.39,-2.188 0.823,-0.697 1.692,-1.329 2.579,-1.92 0.451,-0.281 0.905,-0.552 1.367,-0.797 0.445,-0.227 0.975,-0.471 1.338,-0.58 l 0.058,-0.017 c 0.402,-0.12 0.63,-0.543 0.51,-0.944 l -0.024,-0.069 c -0.866,-2.128 -1.85,-4.121 -2.943,-6.092 -1.096,-1.96 -2.285,-3.872 -3.592,-5.705 -2.616,-3.662 -5.669,-7.048 -9.206,-9.912 -1.767,-1.433 -3.719,-2.639 -5.76,-3.648 -1.019,-0.508 -2.091,-0.903 -3.143,-1.323 -1.082,-0.351 -2.146,-0.734 -3.242,-1.018 -1.077,-0.346 -2.186,-0.566 -3.281,-0.847 -1.115,-0.186 -2.215,-0.422 -3.356,-0.522 -1.145,-0.168 -2.25,-0.219 -3.354,-0.272 -1.159,-0.052 -2.25,0.024 -3.38,0.03 l -3.367,0.089 c -1.116,0.115 -2.232,0.257 -3.347,0.406 l -1.673,0.222 c -0.559,0.065 -1.116,0.145 -1.662,0.289 l -3.294,0.755 c -0.546,0.139 -1.106,0.225 -1.64,0.407 l -1.607,0.53 c -1.068,0.364 -2.152,0.687 -3.207,1.085 -2.058,0.928 -4.189,1.705 -6.158,2.831 -2.047,0.978 -3.944,2.234 -5.821,3.508 l -2.675,2.108 c -0.843,0.759 -1.658,1.551 -2.469,2.341 -0.791,0.813 -1.51,1.694 -2.263,2.535 -0.701,0.89 -1.409,1.77 -2.07,2.685 -1.306,1.852 -2.543,3.698 -3.633,5.739 -0.163,0.307 -0.047,0.688 0.259,0.852 l 0.005,0.002 0.043,0.022 2.889,1.513 c 0.986,0.466 1.868,1.106 2.789,1.682 l 1.364,0.891 c 0.438,0.32 0.854,0.67 1.283,1.004 0.844,0.682 1.727,1.316 2.498,2.086 0.781,0.755 1.623,1.442 2.344,2.261 0.732,0.807 1.517,1.557 2.205,2.408 0.698,0.841 1.429,1.644 2.114,2.505 l 2.078,2.56 c 0.689,0.86 1.381,1.721 2.107,2.568 0.71,0.852 1.475,1.669 2.254,2.476 0.742,0.835 1.62,1.56 2.451,2.318 0.849,0.74 1.819,1.347 2.72,2.021 0.998,0.536 1.964,1.136 2.99,1.6 l 1.577,0.617 c 0.528,0.197 1.037,0.439 1.599,0.544 1.097,0.252 2.19,0.63 3.283,0.794 l 3.275,0.445 z m 0.105,-0.929 -3.272,-0.47 C -3.725,-1.447 -4.219,-1.644 -4.743,-1.77 l -1.55,-0.427 C -6.817,-2.314 -7.299,-2.57 -7.794,-2.779 l -1.477,-0.648 c -0.959,-0.481 -1.849,-1.093 -2.766,-1.64 -0.827,-0.689 -1.711,-1.296 -2.488,-2.042 -0.761,-0.764 -1.587,-1.45 -2.287,-2.286 -0.733,-0.796 -1.455,-1.604 -2.136,-2.463 -0.707,-0.828 -1.405,-1.677 -2.097,-2.534 l -2.102,-2.561 c -0.689,-0.863 -1.449,-1.684 -2.184,-2.517 -0.718,-0.847 -1.547,-1.606 -2.315,-2.413 -0.757,-0.82 -1.646,-1.512 -2.462,-2.273 -0.808,-0.774 -1.731,-1.413 -2.613,-2.099 -0.448,-0.334 -0.883,-0.686 -1.341,-1.006 l -1.412,-0.903 c -0.943,-0.597 -1.85,-1.258 -2.858,-1.742 l -2.96,-1.567 0.306,0.876 c 1.01,-1.863 2.321,-3.664 3.758,-5.288 0.722,-0.815 1.485,-1.595 2.238,-2.376 0.801,-0.738 1.582,-1.49 2.39,-2.21 l 2.475,-2.1 2.564,-1.984 c 1.777,-1.224 3.511,-2.532 5.418,-3.568 1.837,-1.164 3.859,-1.976 5.835,-2.878 1.011,-0.395 2.052,-0.716 3.076,-1.078 l 1.543,-0.53 c 0.513,-0.182 1.054,-0.27 1.579,-0.411 l 3.175,-0.77 c 0.526,-0.148 1.064,-0.231 1.606,-0.301 l 1.619,-0.235 3.238,-0.488 3.274,-0.213 c 1.083,-0.061 2.205,-0.195 3.26,-0.195 1.112,0.007 2.222,0.016 3.278,0.132 2.141,0.198 4.307,0.602 6.36,1.298 2.064,0.68 4.012,1.666 5.853,2.788 1.857,1.095 3.645,2.297 5.354,3.615 3.426,2.625 6.475,5.776 9.089,9.265 1.31,1.743 2.524,3.563 3.625,5.451 1.102,1.876 2.119,3.85 2.915,5.83 l 0.544,-1.03 c -1.28,0.411 -2.184,0.974 -3.172,1.584 -0.957,0.609 -1.87,1.27 -2.762,1.951 -0.889,0.685 -1.758,1.392 -2.607,2.119 -0.844,0.734 -1.684,1.474 -2.478,2.256 -0.808,0.77 -1.596,1.558 -2.359,2.371 -0.765,0.8 -1.498,1.667 -2.208,2.482 -0.727,0.821 -1.418,1.697 -2.141,2.476 -0.703,0.81 -1.464,1.579 -2.212,2.355 -0.771,0.75 -1.549,1.494 -2.361,2.194 -0.393,0.369 -0.808,0.706 -1.226,1.039 -0.417,0.336 -0.828,0.684 -1.27,0.983 -0.855,0.647 -1.762,1.209 -2.673,1.771 -0.938,0.509 -1.881,1.017 -2.871,1.423 -0.483,0.235 -0.993,0.397 -1.497,0.58 -0.502,0.19 -1.01,0.361 -1.532,0.488 C 8.683,-1.479 7.618,-1.316 6.557,-1.127 5.485,-1.02 4.413,-0.88 3.329,-0.879 2.247,-0.811 1.163,-0.907 0.078,-0.932 Z" />
      </g>
      <g
         transform="matrix(0.35277777,0,0,-0.35277777,120.85042,154.14658)"
         id="g330">
        <path
           inkscape:connector-curvature="0"
           id="path332"
           style="fill:#322824;fill-opacity:1;fill-rule:nonzero;stroke:none"
           d="M 0,0 C 0,0 -0.619,0.405 -1.673,1.15 -2.72,1.9 -4.181,3.005 -5.9,4.345 c -1.727,1.313 -3.605,3.071 -5.88,4.423 -0.566,0.337 -1.154,0.636 -1.741,0.877 -0.575,0.24 -1.205,0.403 -1.6,0.366 -0.204,0.022 -0.313,-0.118 -0.328,-0.077 -0.116,-0.132 -0.274,-0.297 -0.278,-0.353 -0.021,-0.039 -0.045,-0.076 -0.072,-0.113 L -15.89,9.27 c -0.253,-0.539 -0.419,-1.207 -0.577,-1.88 -0.28,-1.365 -0.456,-2.806 -0.558,-4.229 -0.106,-1.427 -0.085,-2.843 -0.018,-4.21 0.075,-1.368 0.31,-2.678 0.536,-3.911 0.241,-1.232 0.457,-2.391 0.636,-3.462 0.179,-1.071 0.362,-2.046 0.546,-2.899 0.165,-0.858 0.34,-1.597 0.521,-2.18 0.155,-0.597 0.319,-1.032 0.435,-1.323 0.123,-0.278 0.188,-0.426 0.188,-0.426 l 0.038,-0.085 c 0.137,-0.31 -0.004,-0.672 -0.313,-0.808 -0.265,-0.117 -0.569,-0.03 -0.737,0.192 0,0 -0.126,0.167 -0.362,0.48 -0.199,0.323 -0.485,0.8 -0.756,1.422 -0.269,0.626 -0.541,1.393 -0.81,2.278 -0.255,0.89 -0.492,1.901 -0.689,3.01 -0.201,1.108 -0.33,2.321 -0.38,3.607 -0.066,1.285 -0.065,2.639 -0.145,4.033 -0.086,1.394 -0.143,2.836 -0.191,4.313 -0.034,1.477 -0.026,2.99 0.195,4.533 0.109,0.775 0.29,1.551 0.625,2.36 l 0.134,0.304 0.212,0.358 c 0.163,0.274 0.267,0.37 0.386,0.517 0.177,0.206 0.26,0.227 0.402,0.342 0.13,0.092 0.26,0.185 0.4,0.23 0.282,0.124 0.562,0.201 0.822,0.219 1.059,0.104 1.851,-0.181 2.593,-0.444 0.735,-0.283 1.409,-0.613 2.04,-0.968 C -9.443,9.949 -8.29,9.206 -7.207,8.49 -6.134,7.761 -5.152,7.035 -4.301,6.301 -0.884,3.379 0.853,0.888 0.853,0.888 L 0.857,0.883 C 1.055,0.599 0.985,0.208 0.701,0.01 0.485,-0.14 0.208,-0.135 0,0" />
      </g>
      <g
         transform="matrix(0.35277777,0,0,-0.35277777,129.97819,153.21874)"
         id="g334">
        <path
           inkscape:connector-curvature="0"
           id="path336"
           style="fill:#322824;fill-opacity:1;fill-rule:nonzero;stroke:none"
           d="m 0,0 c 0,0 0.406,0.682 1.221,1.772 0.412,0.544 0.926,1.193 1.56,1.898 0.625,0.714 1.363,1.491 2.217,2.292 0.848,0.808 1.831,1.617 2.929,2.409 1.088,0.798 2.294,1.578 3.575,2.346 0.664,0.358 1.318,0.749 2.051,1.054 0.366,0.152 0.734,0.304 1.105,0.458 0.398,0.11 0.798,0.22 1.2,0.331 0.387,0.136 0.852,0.124 1.28,0.18 l 0.327,0.028 0.163,0.013 0.041,0.004 c -0.028,0.004 0.323,-0.026 0.183,-0.015 l 0.017,-0.003 0.07,-0.013 0.281,-0.049 c 0.155,-0.045 0.376,-0.138 0.552,-0.232 0.669,-0.401 0.899,-0.838 1.146,-1.273 0.219,-0.429 0.349,-0.852 0.462,-1.269 0.386,-1.65 0.399,-3.227 0.367,-4.766 C 20.7,3.627 20.625,2.13 20.52,0.685 20.421,-0.76 20.399,-2.163 20.317,-3.493 c -0.07,-1.332 -0.215,-2.585 -0.425,-3.731 -0.399,-2.296 -0.97,-4.17 -1.473,-5.473 -0.254,-0.647 -0.523,-1.152 -0.717,-1.496 -0.216,-0.344 -0.358,-0.523 -0.358,-0.523 -0.21,-0.267 -0.598,-0.312 -0.864,-0.101 -0.218,0.172 -0.288,0.462 -0.192,0.707 l 0.028,0.072 c 0,0 0.06,0.153 0.173,0.44 0.11,0.304 0.262,0.767 0.406,1.399 0.166,0.62 0.34,1.392 0.501,2.292 0.181,0.894 0.37,1.911 0.559,3.026 0.188,1.115 0.421,2.32 0.681,3.598 0.241,1.28 0.499,2.637 0.593,4.055 0.086,1.417 0.123,2.886 0.017,4.36 -0.099,1.468 -0.297,2.968 -0.689,4.284 -0.114,0.314 -0.233,0.615 -0.366,0.867 -0.067,0.125 -0.144,0.206 -0.207,0.314 -0.036,0.025 -0.069,0.052 -0.098,0.082 l -0.042,0.047 c 0,0 0.003,-0.016 0.01,-0.018 0.005,-0.01 0.063,10e-4 0.042,0.025 l -0.282,0.041 -0.071,0.01 -0.017,0.003 c -0.152,0.012 0.187,-0.014 0.147,-0.012 l -0.03,-0.004 -0.12,-0.017 -0.238,-0.033 C 16.965,10.661 16.655,10.689 16.33,10.557 15.034,10.264 13.785,9.541 12.612,8.87 11.458,8.122 10.382,7.319 9.42,6.469 8.932,6.057 8.456,5.654 8.012,5.242 7.556,4.844 7.117,4.458 6.694,4.089 4.979,2.611 3.549,1.379 2.549,0.517 1.522,-0.337 0.926,-0.812 0.926,-0.812 0.656,-1.027 0.262,-0.982 0.047,-0.712 -0.12,-0.503 -0.129,-0.217 0,0" />
      </g>
      <g
         transform="matrix(0.35277777,0,0,-0.35277777,123.39288,161.73148)"
         id="g338">
        <path
           inkscape:connector-curvature="0"
           id="path340"
           style="fill:#322824;fill-opacity:1;fill-rule:nonzero;stroke:none"
           d="m 0,0 c 0,1.288 -1.044,2.332 -2.332,2.332 -1.287,0 -2.331,-1.044 -2.331,-2.332 0,-1.288 1.044,-2.332 2.331,-2.332 C -1.044,-2.332 0,-1.288 0,0" />
      </g>
      <g
         transform="matrix(0.35277777,0,0,-0.35277777,131.52462,161.73148)"
         id="g342">
        <path
           inkscape:connector-curvature="0"
           id="path344"
           style="fill:#322824;fill-opacity:1;fill-rule:nonzero;stroke:none"
           d="m 0,0 c 0,1.288 -1.044,2.332 -2.332,2.332 -1.287,0 -2.331,-1.044 -2.331,-2.332 0,-1.288 1.044,-2.332 2.331,-2.332 C -1.044,-2.332 0,-1.288 0,0" />
      </g>
      <g
         transform="matrix(0.35277777,0,0,-0.35277777,125.18323,162.46413)"
         id="g346">
        <path
           inkscape:connector-curvature="0"
           id="path348"
           style="fill:#322824;fill-opacity:1;fill-rule:nonzero;stroke:none"
           d="m 0,0 c -0.967,-1.414 2.816,-3.872 4.341,-3.872 1.524,0 4.095,2.721 3.647,4.066 C 7.539,1.539 1.166,1.704 0,0" />
      </g>
      <g
         transform="matrix(0.35277777,0,0,-0.35277777,126.57402,165.94668)"
         id="g350">
        <path
           inkscape:connector-curvature="0"
           id="path352"
           style="fill:#322824;fill-opacity:1;fill-rule:nonzero;stroke:none"
           d="M 0,0 C -0.032,0 -0.064,0.003 -0.097,0.009 -0.368,0.063 -0.544,0.326 -0.491,0.597 0.066,3.42 -0.216,6.28 -0.219,6.308 -0.247,6.583 -0.047,6.828 0.228,6.856 0.495,6.88 0.748,6.685 0.776,6.41 0.789,6.287 1.076,3.372 0.49,0.403 0.443,0.165 0.234,0 0,0" />
      </g>
      <g
         transform="matrix(0.35277777,0,0,-0.35277777,122.89575,163.63891)"
         id="g354">
        <path
           inkscape:connector-curvature="0"
           id="path356"
           style="fill:#322824;fill-opacity:1;fill-rule:nonzero;stroke:none"
           d="m 0,0 c 0.001,-0.006 0.044,-0.089 0.124,-0.218 0.087,-0.146 0.233,-0.354 0.425,-0.616 0.197,-0.259 0.448,-0.567 0.775,-0.883 0.321,-0.32 0.709,-0.656 1.16,-0.982 0.442,-0.336 0.961,-0.652 1.537,-0.927 0.57,-0.286 1.206,-0.521 1.878,-0.723 0.33,-0.116 0.676,-0.204 1.035,-0.271 0.354,-0.079 0.711,-0.161 1.083,-0.201 0.734,-0.13 1.496,-0.173 2.259,-0.212 0.684,0.006 1.63,-0.041 2.293,0.051 0.716,0.047 1.445,0.164 2.13,0.302 0.682,0.158 1.325,0.353 1.92,0.578 0.586,0.241 1.123,0.511 1.585,0.813 0.456,0.306 0.863,0.611 1.194,0.913 0.34,0.296 0.596,0.595 0.797,0.845 0.199,0.253 0.344,0.459 0.434,0.601 0.078,0.131 0.12,0.201 0.12,0.201 l 0.037,0.062 c 0.144,0.24 0.455,0.318 0.695,0.174 0.202,-0.121 0.289,-0.362 0.225,-0.578 0,0 -0.04,-0.134 -0.114,-0.327 -0.079,-0.194 -0.193,-0.479 -0.39,-0.807 -0.194,-0.329 -0.446,-0.723 -0.793,-1.127 -0.333,-0.417 -0.766,-0.839 -1.285,-1.24 -0.515,-0.405 -1.119,-0.78 -1.784,-1.123 -0.333,-0.17 -0.69,-0.305 -1.05,-0.464 -0.365,-0.142 -0.75,-0.236 -1.137,-0.358 -0.781,-0.195 -1.587,-0.371 -2.452,-0.431 -0.436,-0.051 -0.856,-0.08 -1.245,-0.076 -0.422,0 -0.754,-0.033 -1.253,-0.002 -0.842,0.053 -1.684,0.114 -2.51,0.271 -0.415,0.05 -0.818,0.168 -1.218,0.272 -0.401,0.094 -0.792,0.212 -1.169,0.36 -0.381,0.131 -0.753,0.266 -1.099,0.452 -0.35,0.17 -0.694,0.332 -1.007,0.537 -0.641,0.374 -1.214,0.792 -1.698,1.225 -0.501,0.413 -0.89,0.874 -1.212,1.29 -0.326,0.415 -0.568,0.808 -0.754,1.138 -0.188,0.329 -0.298,0.612 -0.376,0.804 -0.081,0.213 -0.108,0.311 -0.108,0.311 l -0.001,0.006 c -0.074,0.272 0.086,0.552 0.358,0.626 C -0.351,0.331 -0.106,0.214 0,0" />
      </g>
      <g
         transform="matrix(0.35277777,0,0,-0.35277777,121.34713,163.89506)"
         id="g358">
        <path
           inkscape:connector-curvature="0"
           id="path360"
           style="fill:#322824;fill-opacity:1;fill-rule:nonzero;stroke:none"
           d="m 0,0 c 0,0 -0.746,-0.057 -2.048,-0.238 -0.651,-0.1 -1.44,-0.214 -2.34,-0.384 -0.905,-0.138 -1.909,-0.386 -3.016,-0.598 -1.096,-0.258 -2.293,-0.509 -3.536,-0.863 -0.623,-0.169 -1.264,-0.343 -1.919,-0.521 -0.647,-0.206 -1.308,-0.415 -1.981,-0.628 -1.351,-0.41 -2.702,-0.963 -4.092,-1.477 -1.384,-0.532 -2.748,-1.174 -4.141,-1.748 -1.356,-0.655 -2.726,-1.287 -4.05,-1.956 -1.301,-0.716 -2.58,-1.42 -3.819,-2.102 -1.187,-0.768 -2.335,-1.51 -3.423,-2.213 -1.088,-0.703 -2.051,-1.466 -2.981,-2.107 -0.929,-0.644 -1.797,-1.213 -2.511,-1.792 -0.728,-0.56 -1.363,-1.049 -1.886,-1.451 -1.06,-0.788 -1.666,-1.238 -1.666,-1.238 l -0.008,-0.006 c -0.082,-0.061 -0.197,-0.044 -0.258,0.038 -0.059,0.079 -0.045,0.19 0.03,0.252 0,0 0.583,0.483 1.603,1.329 0.518,0.415 1.146,0.918 1.867,1.496 0.707,0.596 1.567,1.185 2.489,1.851 0.941,0.638 1.936,1.366 3.046,2.048 1.112,0.677 2.285,1.391 3.498,2.13 1.235,0.703 2.51,1.429 3.806,2.168 1.328,0.681 2.676,1.374 4.025,2.066 1.388,0.61 2.764,1.252 4.152,1.804 1.397,0.528 2.755,1.096 4.114,1.52 0.675,0.228 1.338,0.451 1.987,0.67 0.658,0.194 1.301,0.384 1.927,0.569 1.251,0.373 2.463,0.624 3.571,0.891 1.118,0.226 2.147,0.41 3.067,0.531 0.916,0.146 1.726,0.195 2.387,0.264 1.329,0.084 2.096,0.064 2.096,0.064 C 0.092,0.367 0.173,0.282 0.171,0.18 0.169,0.085 0.093,0.008 0,0" />
      </g>
      <g
         transform="matrix(0.35277777,0,0,-0.35277777,122.03166,164.80234)"
         id="g362">
        <path
           inkscape:connector-curvature="0"
           id="path364"
           style="fill:#322824;fill-opacity:1;fill-rule:nonzero;stroke:none"
           d="m 0,0 c 0,0 -0.185,-0.046 -0.532,-0.132 -0.343,-0.083 -0.848,-0.243 -1.486,-0.436 -0.64,-0.194 -1.407,-0.457 -2.284,-0.771 -0.882,-0.297 -1.853,-0.706 -2.922,-1.118 -1.061,-0.436 -2.21,-0.908 -3.398,-1.473 -1.209,-0.521 -2.439,-1.166 -3.722,-1.812 -1.267,-0.676 -2.556,-1.415 -3.86,-2.173 -1.274,-0.81 -2.602,-1.578 -3.868,-2.445 -1.262,-0.872 -2.579,-1.668 -3.775,-2.592 -1.202,-0.915 -2.436,-1.751 -3.54,-2.676 -1.099,-0.93 -2.162,-1.828 -3.169,-2.68 -0.972,-0.893 -1.891,-1.736 -2.739,-2.515 -0.871,-0.754 -1.656,-1.459 -2.32,-2.119 -0.675,-0.648 -1.263,-1.213 -1.748,-1.678 -0.985,-0.915 -1.549,-1.438 -1.549,-1.438 l -0.005,-0.005 c -0.075,-0.069 -0.192,-0.065 -0.261,0.01 -0.067,0.072 -0.065,0.184 0.003,0.254 l 1.474,1.52 c 0.478,0.477 1.058,1.055 1.722,1.718 0.654,0.675 1.429,1.399 2.288,2.172 0.87,0.763 1.811,1.588 2.807,2.462 1.034,0.828 2.124,1.702 3.252,2.605 1.105,0.931 2.32,1.802 3.515,2.736 1.184,0.952 2.482,1.789 3.73,2.696 1.254,0.9 2.594,1.67 3.867,2.499 1.307,0.774 2.6,1.527 3.872,2.219 1.285,0.667 2.508,1.351 3.718,1.9 1.193,0.587 2.358,1.062 3.429,1.509 1.079,0.427 2.085,0.778 2.985,1.061 0.897,0.293 1.696,0.495 2.354,0.661 1.32,0.309 2.098,0.405 2.098,0.405 C 0.037,0.376 0.129,0.304 0.142,0.203 0.153,0.109 0.09,0.022 0,0" />
      </g>
      <g
         transform="matrix(0.35277777,0,0,-0.35277777,131.7153,163.42375)"
         id="g366">
        <path
           inkscape:connector-curvature="0"
           id="path368"
           style="fill:#322824;fill-opacity:1;fill-rule:nonzero;stroke:none"
           d="M 0,0 C 0,0 0.642,0.104 1.766,0.211 2.892,0.31 4.504,0.388 6.439,0.379 7.405,0.342 8.454,0.34 9.559,0.263 10.665,0.204 11.828,0.109 13.031,0 c 1.205,-0.082 2.442,-0.243 3.703,-0.368 1.258,-0.152 2.534,-0.323 3.808,-0.506 1.268,-0.22 2.536,-0.44 3.784,-0.656 1.242,-0.243 2.465,-0.481 3.649,-0.712 1.179,-0.249 2.324,-0.469 3.411,-0.674 1.087,-0.204 2.099,-0.469 3.038,-0.69 0.935,-0.239 1.796,-0.445 2.547,-0.671 0.751,-0.225 1.406,-0.42 1.945,-0.581 1.074,-0.337 1.688,-0.529 1.688,-0.529 0.097,-0.031 0.151,-0.134 0.121,-0.232 -0.029,-0.093 -0.126,-0.147 -0.22,-0.124 l -0.006,0.002 c 0,0 -0.623,0.152 -1.714,0.42 -1.089,0.268 -2.629,0.711 -4.503,1.143 -1.864,0.471 -4.032,1.049 -6.384,1.553 -1.184,0.21 -2.407,0.427 -3.65,0.647 -1.248,0.179 -2.517,0.362 -3.786,0.544 -2.542,0.323 -5.087,0.623 -7.482,0.79 -1.198,0.091 -2.356,0.147 -3.456,0.181 -1.098,0.06 -2.137,0.065 -3.096,0.095 C 5.469,-0.373 4.59,-0.322 3.811,-0.336 3.032,-0.335 2.353,-0.335 1.793,-0.334 0.673,-0.341 0.037,-0.368 0.037,-0.368 -0.065,-0.372 -0.151,-0.292 -0.155,-0.19 -0.159,-0.096 -0.091,-0.015 0,0" />
      </g>
      <g
         transform="matrix(0.35277777,0,0,-0.35277777,131.73192,164.33812)"
         id="g370">
        <path
           inkscape:connector-curvature="0"
           id="path372"
           style="fill:#322824;fill-opacity:1;fill-rule:nonzero;stroke:none"
           d="m 0,0 c 0,0 0.666,-0.061 1.819,-0.229 0.576,-0.087 1.274,-0.199 2.073,-0.345 0.793,-0.167 1.699,-0.313 2.667,-0.554 0.973,-0.225 2.024,-0.481 3.128,-0.779 1.108,-0.284 2.259,-0.646 3.459,-0.984 1.195,-0.358 2.428,-0.734 3.674,-1.136 1.236,-0.432 2.513,-0.812 3.751,-1.301 1.244,-0.472 2.489,-0.938 3.693,-1.455 1.215,-0.488 2.4,-0.993 3.531,-1.517 1.147,-0.491 2.254,-0.966 3.286,-1.461 1.038,-0.481 2.023,-0.931 2.89,-1.428 0.873,-0.487 1.672,-0.933 2.381,-1.328 0.684,-0.438 1.28,-0.82 1.771,-1.134 0.971,-0.642 1.526,-1.01 1.526,-1.01 0.085,-0.056 0.109,-0.17 0.053,-0.255 -0.055,-0.082 -0.162,-0.107 -0.246,-0.059 l -0.01,0.006 c 0,0 -0.573,0.331 -1.577,0.909 -0.498,0.295 -1.102,0.652 -1.796,1.063 -0.708,0.383 -1.508,0.816 -2.38,1.288 -0.857,0.5 -1.83,0.957 -2.835,1.492 -0.506,0.26 -1.025,0.528 -1.556,0.802 -0.544,0.248 -1.099,0.501 -1.664,0.758 -1.131,0.514 -2.325,0.985 -3.542,1.451 -1.209,0.488 -2.465,0.91 -3.716,1.345 -1.243,0.455 -2.512,0.837 -3.747,1.251 -1.243,0.39 -2.474,0.752 -3.665,1.099 -1.2,0.318 -2.355,0.642 -3.463,0.9 -1.102,0.28 -2.146,0.538 -3.115,0.755 -3.861,0.923 -6.447,1.491 -6.447,1.491 -0.1,0.022 -0.163,0.121 -0.141,0.22 C -0.178,-0.052 -0.092,0.008 0,0" />
      </g>
      <g
         transform="matrix(0.35277777,0,0,-0.35277777,116.16366,152.64445)"
         id="g374">
        <path
           inkscape:connector-curvature="0"
           id="path376"
           style="fill:#322824;fill-opacity:1;fill-rule:nonzero;stroke:none"
           d="M 0,0 C 0,0 0.745,-0.041 1.751,-0.36 2.767,-0.664 4.06,-1.264 5.223,-2.071 5.522,-2.259 5.787,-2.496 6.066,-2.704 6.345,-2.912 6.586,-3.158 6.832,-3.379 7.309,-3.838 7.727,-4.295 8.04,-4.724 8.372,-5.135 8.597,-5.518 8.752,-5.785 8.906,-6.053 8.985,-6.21 8.985,-6.21 9.114,-6.467 9.009,-6.78 8.752,-6.908 8.571,-6.999 8.362,-6.974 8.21,-6.861 L 8.196,-6.85 c 0,0 -0.135,0.1 -0.37,0.275 -0.228,0.18 -0.543,0.441 -0.928,0.741 -0.76,0.609 -1.764,1.398 -2.813,2.125 -0.52,0.371 -1.055,0.722 -1.561,1.046 -0.505,0.326 -0.987,0.618 -1.403,0.867 -0.838,0.491 -1.397,0.818 -1.397,0.818 l -0.016,0.01 C -0.54,-0.823 -0.623,-0.504 -0.477,-0.256 -0.376,-0.083 -0.188,0.01 0,0" />
      </g>
      <g
         transform="matrix(0.35277777,0,0,-0.35277777,135.67276,151.5054)"
         id="g378">
        <path
           inkscape:connector-curvature="0"
           id="path380"
           style="fill:#322824;fill-opacity:1;fill-rule:nonzero;stroke:none"
           d="m 0,0 c 0,0 -0.677,-0.455 -1.676,-1.186 -0.499,-0.359 -1.062,-0.801 -1.66,-1.271 -0.583,-0.489 -1.21,-1 -1.79,-1.559 -1.183,-1.093 -2.245,-2.293 -2.994,-3.248 -0.188,-0.24 -0.361,-0.459 -0.514,-0.654 -0.144,-0.203 -0.27,-0.38 -0.373,-0.526 -0.22,-0.29 -0.346,-0.456 -0.346,-0.456 l -0.03,-0.039 c -0.171,-0.224 -0.492,-0.268 -0.716,-0.097 -0.176,0.134 -0.24,0.361 -0.177,0.561 0,0 0.067,0.211 0.184,0.581 0.117,0.372 0.312,0.896 0.628,1.485 0.14,0.306 0.324,0.618 0.536,0.937 0.2,0.328 0.42,0.669 0.686,0.991 0.254,0.333 0.518,0.676 0.826,0.987 0.295,0.326 0.602,0.647 0.935,0.941 0.65,0.606 1.358,1.142 2.042,1.607 0.696,0.448 1.363,0.835 1.965,1.11 1.183,0.573 2.075,0.77 2.075,0.77 C -0.12,0.996 0.156,0.82 0.218,0.542 0.265,0.328 0.171,0.115 0,0" />
      </g>
      <g
         transform="matrix(0.35277777,0,0,-0.35277777,118.68295,170.52037)"
         id="g382">
        <path
           inkscape:connector-curvature="0"
           id="path384"
           style="fill:#322824;fill-opacity:1;fill-rule:nonzero;stroke:none"
           d="m 0,0 c 0,0 -0.228,-0.77 -0.578,-2.116 -0.173,-0.667 -0.383,-1.483 -0.526,-2.37 -0.071,-0.44 -0.104,-0.902 -0.092,-1.291 l 0.039,-0.234 c 0.013,-0.073 0.044,-0.065 0.043,-0.108 0.001,-0.022 0.008,0.031 -0.003,0.038 -0.005,0.008 -0.013,0.014 -0.021,0.019 l -0.015,0.005 h -0.004 c 0.07,-0.06 -0.1,0.085 -0.077,0.066 l 0.022,-0.017 0.362,-0.272 c 0.242,-0.185 0.489,-0.375 0.741,-0.567 0.236,-0.131 0.476,-0.257 0.71,-0.405 0.432,-0.306 1.057,-0.561 1.637,-0.859 1.192,-0.575 2.541,-1.055 3.965,-1.471 1.434,-0.391 2.941,-0.724 4.487,-1.007 1.548,-0.28 3.135,-0.492 4.727,-0.682 1.592,-0.18 3.19,-0.36 4.771,-0.444 0.79,-0.054 1.575,-0.087 2.351,-0.068 0.776,-0.004 1.542,0.01 2.293,0.074 1.505,0.077 2.938,0.375 4.274,0.663 0.663,0.161 1.308,0.317 1.931,0.468 0.612,0.181 1.208,0.326 1.78,0.469 l 0.054,0.012 0.013,0.003 c -0.038,-0.013 0.103,0.035 -0.081,-0.029 l 0.026,0.01 0.106,0.042 0.05,0.02 -0.026,-0.003 c -0.017,-0.004 -0.032,-0.013 -0.044,-0.024 -0.009,-0.009 0.038,0.035 0.071,0.079 0.078,0.108 0.157,0.299 0.22,0.502 0.133,0.413 0.201,0.894 0.241,1.347 0.1,0.914 0.097,1.757 0.08,2.446 -0.003,0.692 -0.022,1.242 -0.043,1.614 -0.014,0.369 -0.021,0.567 -0.021,0.567 l -10e-4,0.006 c -0.013,0.342 0.254,0.63 0.596,0.643 0.291,0.011 0.542,-0.18 0.619,-0.448 0,0 0.234,-0.809 0.449,-2.26 0.087,-0.729 0.182,-1.615 0.168,-2.681 -0.023,-0.534 -0.062,-1.109 -0.232,-1.767 -0.093,-0.329 -0.212,-0.679 -0.459,-1.06 -0.135,-0.194 -0.281,-0.376 -0.527,-0.566 -0.075,-0.053 -0.152,-0.102 -0.232,-0.148 l -0.12,-0.065 -0.054,-0.023 -0.105,-0.043 -0.026,-0.011 -0.109,-0.037 -0.014,-0.003 -0.057,-0.015 c -0.612,-0.15 -1.249,-0.311 -1.914,-0.446 -0.663,-0.135 -1.362,-0.178 -2.071,-0.271 -0.708,-0.102 -1.443,-0.102 -2.187,-0.156 -0.743,-0.061 -1.502,-0.083 -2.272,-0.127 -0.77,-0.06 -1.552,-0.114 -2.345,-0.127 -0.793,-0.02 -1.595,-0.093 -2.405,-0.088 -1.62,-0.054 -3.27,-0.039 -4.917,0.058 -1.648,0.096 -3.287,0.306 -4.898,0.539 -1.61,0.254 -3.185,0.575 -4.702,0.955 -1.515,0.39 -2.98,0.804 -4.358,1.328 -0.688,0.287 -1.337,0.522 -2.015,0.928 -0.335,0.181 -0.655,0.378 -0.968,0.566 -0.248,0.198 -0.491,0.393 -0.729,0.583 l -0.35,0.286 -0.022,0.018 c 0.015,-0.014 -0.16,0.139 -0.096,0.086 l -0.02,0.023 -0.079,0.096 -0.151,0.198 c -0.088,0.132 -0.199,0.288 -0.237,0.407 -0.079,0.238 -0.173,0.512 -0.195,0.722 -0.018,0.204 -0.035,0.411 -0.04,0.606 0.023,0.723 0.164,1.307 0.313,1.832 0.303,1.045 0.684,1.858 1.014,2.521 0.676,1.309 1.175,1.996 1.175,1.996 l 0.008,0.011 C -0.9,0.822 -0.51,0.884 -0.232,0.681 -0.012,0.522 0.072,0.246 0,0" />
      </g>
      <g
         transform="matrix(0.35277777,0,0,-0.35277777,118.05539,173.12087)"
         id="g386">
        <path
           inkscape:connector-curvature="0"
           id="path388"
           style="fill:#322824;fill-opacity:1;fill-rule:nonzero;stroke:none"
           d="m 0,0 c 0,0 -0.792,-0.503 -2.308,-1.342 -1.519,-0.841 -3.772,-2.031 -6.734,-3.342 -2.957,-1.321 -6.625,-2.761 -10.933,-4.11 -4.301,-1.367 -9.266,-2.583 -14.762,-3.415 -5.516,-0.829 -11.496,-1.099 -17.799,-1.607 -3.144,-0.25 -6.401,-0.425 -9.613,-1.014 -1.581,-0.336 -3.172,-0.746 -4.487,-1.495 -1.324,-0.741 -2.239,-1.894 -2.978,-3.296 -0.7,-1.378 -1.478,-3.092 -1.508,-4.403 -0.119,-1.547 0.041,-3.211 0.396,-4.851 0.687,-3.302 2.144,-6.539 4.064,-9.481 1.948,-2.927 4.289,-5.652 7.01,-7.975 2.716,-2.326 5.728,-4.334 8.942,-5.977 6.415,-3.315 13.755,-4.968 20.897,-4.678 1.776,-0.036 3.574,0.108 5.306,0.14 1.782,0.142 3.593,0.166 5.32,0.345 3.486,0.239 6.939,0.751 10.285,1.381 6.684,1.31 13.021,3.406 18.434,6.504 2.714,1.529 5.156,3.341 7.328,5.279 2.163,1.953 4.042,4.04 5.747,6.115 0.854,1.038 1.624,2.105 2.376,3.152 0.698,1.082 1.4,2.129 1.987,3.21 1.22,2.133 2.213,4.255 3.004,6.307 1.632,4.087 2.593,7.841 3.187,10.965 0.625,3.122 0.888,5.623 1.084,7.323 0.154,1.708 0.236,2.619 0.236,2.619 l 10e-4,0.015 c 0.023,0.257 0.251,0.447 0.508,0.423 0.245,-0.022 0.429,-0.231 0.425,-0.473 0,0 -0.015,-0.926 -0.044,-2.661 -0.104,-1.732 -0.195,-4.287 -0.68,-7.508 -0.49,-3.215 -1.282,-7.121 -2.854,-11.413 -0.776,-2.147 -1.764,-4.379 -2.994,-6.637 -1.214,-2.264 -2.673,-4.562 -4.459,-6.757 -1.766,-2.212 -3.891,-4.278 -6.261,-6.179 -2.392,-1.878 -5.037,-3.564 -7.832,-5.131 -5.591,-3.156 -12.02,-5.432 -18.82,-6.946 -3.413,-0.726 -6.895,-1.323 -10.483,-1.682 -1.8,-0.228 -3.561,-0.316 -5.358,-0.429 -1.853,-0.048 -3.662,-0.071 -5.505,0.077 -7.301,0.705 -14.721,1.982 -21.564,5.127 -6.828,3.106 -12.794,8.15 -16.943,14.329 -2.031,3.115 -3.732,6.449 -4.677,10.067 -0.455,1.807 -0.742,3.688 -0.558,5.634 0.016,0.465 0.144,1.02 0.248,1.538 0.054,0.271 0.131,0.432 0.195,0.654 l 0.106,0.309 0.026,0.077 c 0.071,0.187 0.04,0.096 0.065,0.158 l 0.071,0.155 0.569,1.235 c 0.201,0.41 0.444,0.814 0.671,1.214 0.931,1.601 2.406,3.092 4.144,3.851 1.72,0.779 3.464,1.028 5.142,1.255 3.361,0.36 6.595,0.575 9.751,0.809 6.3,0.449 12.266,0.939 17.653,1.837 5.404,0.886 10.276,2.129 14.543,3.391 4.262,1.284 7.904,2.646 10.867,3.849 2.953,1.228 5.233,2.29 6.767,3.049 1.538,0.763 2.321,1.212 2.321,1.212 C -0.255,0.932 0.031,0.855 0.16,0.631 0.285,0.413 0.215,0.137 0.006,0.004 Z" />
      </g>
      <g
         transform="matrix(0.35277777,0,0,-0.35277777,81.619342,160.35254)"
         id="g390">
        <path
           inkscape:connector-curvature="0"
           id="path392"
           style="fill:#322824;fill-opacity:1;fill-rule:nonzero;stroke:none"
           d="m 0,0 c 0,0 -0.267,-1.193 -0.734,-3.282 -0.216,-1.043 -0.468,-2.304 -0.681,-3.73 -0.199,-1.427 -0.392,-3.023 -0.393,-4.701 -0.01,-1.676 0.103,-3.437 0.599,-5.134 0.476,-1.701 1.466,-3.32 3.049,-4.53 0.19,-0.159 0.388,-0.31 0.608,-0.441 l 0.321,-0.208 0.16,-0.105 0.08,-0.053 0.04,-0.027 c -0.042,0.022 0.124,-0.068 -0.09,0.046 l 0.025,-0.012 c 0.538,-0.275 1.08,-0.551 1.626,-0.83 0.289,-0.165 0.506,-0.214 0.746,-0.304 l 0.708,-0.258 c 0.444,-0.208 1.037,-0.275 1.552,-0.426 2.155,-0.475 4.495,-0.476 7.015,-0.389 2.512,0.08 5.263,0.082 7.936,-0.542 2.68,-0.609 5.106,-1.89 7.142,-3.383 0.503,-0.383 0.99,-0.777 1.492,-1.145 l 0.095,-0.07 0.142,-0.131 0.161,-0.148 0.321,-0.294 c 0.212,-0.198 0.425,-0.392 0.645,-0.577 l 0.648,-0.567 0.635,-0.704 c 0.405,-0.476 0.872,-0.936 1.215,-1.427 1.482,-1.904 2.369,-4.085 2.848,-6.13 0.476,-2.062 0.478,-3.99 0.388,-5.659 -0.135,-1.673 -0.45,-3.089 -0.767,-4.232 -0.347,-1.138 -0.681,-2.003 -0.957,-2.585 -0.13,-0.29 -0.252,-0.514 -0.329,-0.665 -0.085,-0.162 -0.13,-0.246 -0.13,-0.246 -0.318,-0.601 -1.063,-0.831 -1.664,-0.513 -0.493,0.261 -0.736,0.809 -0.632,1.329 l 0.03,0.147 c 0,0 0.056,0.28 0.161,0.804 0.114,0.542 0.246,1.36 0.38,2.39 0.111,1.034 0.231,2.288 0.209,3.708 0.019,0.356 -0.027,0.719 -0.037,1.093 -0.014,0.375 -0.03,0.759 -0.096,1.146 -0.053,0.388 -0.08,0.79 -0.142,1.195 -0.083,0.399 -0.167,0.807 -0.254,1.224 -0.417,1.642 -0.947,3.395 -1.863,5.15 -0.867,1.585 -2.251,3.564 -4.043,4.829 -1.773,1.338 -3.876,2.261 -6.131,2.506 -2.256,0.285 -4.624,-0.049 -7.163,-0.298 -2.532,-0.254 -5.321,-0.402 -8.071,0.142 l -1.024,0.222 c -0.337,0.062 -0.681,0.158 -1.031,0.288 l -1.038,0.359 c -0.338,0.122 -0.714,0.242 -0.961,0.378 -0.553,0.264 -1.102,0.527 -1.646,0.787 l -0.165,0.087 -0.056,0.034 -0.111,0.068 -0.222,0.135 -0.442,0.272 c -0.299,0.172 -0.582,0.374 -0.857,0.587 -2.25,1.615 -4.044,3.913 -5.002,6.324 -0.998,2.412 -1.229,4.846 -1.104,6.96 0.118,2.13 0.563,3.985 1.063,5.567 0.496,1.585 1.093,2.89 1.627,3.934 0.536,1.046 1.032,1.824 1.387,2.348 0.177,0.263 0.33,0.457 0.428,0.592 0.104,0.137 0.157,0.207 0.157,0.207 0.417,0.551 1.201,0.659 1.751,0.242 C -0.044,1.05 0.122,0.549 0.02,0.086 Z" />
      </g>
      <g
         transform="matrix(0.35277777,0,0,-0.35277777,119.99571,182.8822)"
         id="g394">
        <path
           inkscape:connector-curvature="0"
           id="path396"
           style="fill:#322824;fill-opacity:1;fill-rule:nonzero;stroke:none"
           d="m 0,0 c 0,0 0.275,-0.754 0.698,-2.09 0.196,-0.671 0.433,-1.486 0.706,-2.422 0.256,-0.939 0.53,-2.002 0.809,-3.166 0.283,-1.164 0.528,-2.438 0.743,-3.797 0.231,-1.354 0.433,-2.792 0.769,-4.25 0.337,-1.458 0.693,-2.963 1.11,-4.48 0.402,-1.52 0.832,-3.061 1.208,-4.613 0.743,-3.108 1.423,-6.231 2.031,-9.167 0.619,-2.933 1.347,-5.647 1.68,-8.035 0.181,-1.189 0.315,-2.286 0.386,-3.268 0.079,-0.981 0.148,-1.829 0.144,-2.545 0.005,-1.424 -0.041,-2.235 -0.041,-2.235 -0.02,-0.343 -0.314,-0.605 -0.657,-0.585 -0.269,0.015 -0.488,0.199 -0.561,0.442 l -0.008,0.029 c 0,0 -0.231,0.773 -0.546,2.122 -0.141,0.674 -0.364,1.496 -0.557,2.44 -0.197,0.943 -0.424,2.01 -0.651,3.178 -0.453,2.333 -0.759,5.105 -1.303,8.039 -0.564,2.932 -1.167,6.059 -1.769,9.186 -0.275,1.571 -0.55,3.141 -0.821,4.688 -0.266,1.548 -0.587,3.058 -0.907,4.518 -0.332,1.457 -0.767,2.839 -1.157,4.155 -0.406,1.312 -0.741,2.563 -1.009,3.728 -0.268,1.165 -0.497,2.236 -0.693,3.188 -0.18,0.956 -0.336,1.789 -0.465,2.475 -0.23,1.378 -0.335,2.173 -0.335,2.173 -0.045,0.339 0.194,0.65 0.533,0.694 C -0.37,0.441 -0.097,0.267 0,0" />
      </g>
      <g
         transform="matrix(0.35277777,0,0,-0.35277777,127.77872,184.968)"
         id="g398">
        <path
           inkscape:connector-curvature="0"
           id="path400"
           style="fill:#322824;fill-opacity:1;fill-rule:nonzero;stroke:none"
           d="m 0,0 c 0,0 0.995,-2.409 1.934,-6.162 0.241,-0.936 0.451,-1.964 0.619,-3.064 0.186,-1.095 0.35,-2.258 0.636,-3.432 0.537,-2.357 1.386,-4.806 2.057,-7.299 0.664,-2.494 1.265,-5.005 1.816,-7.364 0.56,-2.356 1.233,-4.53 1.543,-6.456 0.173,-0.955 0.263,-1.858 0.344,-2.648 0.089,-0.786 0.085,-1.511 0.098,-2.086 0.023,-0.566 -0.065,-1.081 -0.082,-1.395 -0.041,-0.321 -0.063,-0.492 -0.063,-0.492 -0.043,-0.336 -0.35,-0.574 -0.687,-0.531 -0.251,0.033 -0.447,0.213 -0.512,0.442 l -0.032,0.112 c 0,0 -0.042,0.15 -0.121,0.432 -0.076,0.288 -0.148,0.664 -0.316,1.21 -0.161,0.539 -0.301,1.179 -0.506,1.936 -0.206,0.754 -0.384,1.603 -0.605,2.541 -0.219,0.935 -0.371,1.962 -0.562,3.05 -0.172,1.091 -0.36,2.239 -0.603,3.421 -0.497,2.36 -1.027,4.877 -1.557,7.395 -0.502,2.525 -0.863,5.088 -1.469,7.425 -0.283,1.174 -0.679,2.279 -1.023,3.333 -0.359,1.052 -0.659,2.055 -0.884,2.994 -0.931,3.749 -1.218,6.332 -1.218,6.332 -0.038,0.342 0.208,0.649 0.55,0.687 C -0.362,0.412 -0.103,0.249 0,0" />
      </g>
      <g
         transform="matrix(0.35277777,0,0,-0.35277777,102.87667,185.80299)"
         id="g402">
        <path
           inkscape:connector-curvature="0"
           id="path404"
           style="fill:#322824;fill-opacity:1;fill-rule:nonzero;stroke:none"
           d="m 0,0 c 0,0 0.355,-2.782 0.234,-6.94 -0.03,-1.04 -0.107,-2.165 -0.257,-3.351 -0.132,-1.187 -0.302,-2.436 -0.371,-3.733 -0.161,-2.592 -0.095,-5.374 -0.22,-8.148 -0.053,-1.388 -0.184,-2.771 -0.271,-4.135 -0.124,-1.363 -0.247,-2.704 -0.365,-4.001 -0.137,-1.297 -0.239,-2.555 -0.333,-3.75 -0.129,-1.192 -0.255,-2.32 -0.437,-3.351 -0.199,-1.03 -0.418,-1.968 -0.628,-2.795 -0.194,-0.828 -0.444,-1.539 -0.64,-2.122 -0.409,-1.164 -0.689,-1.812 -0.689,-1.812 -0.138,-0.317 -0.506,-0.463 -0.823,-0.326 -0.237,0.103 -0.379,0.336 -0.377,0.579 l 10e-4,0.028 c 0,0 0.007,0.704 0.101,1.907 0.059,0.598 0.131,1.324 0.213,2.157 0.08,0.834 0.199,1.767 0.346,2.782 0.12,1.022 0.32,2.117 0.536,3.277 0.21,1.162 0.405,2.393 0.589,3.669 0.312,2.56 0.603,5.298 0.889,8.04 0.162,1.371 0.324,2.741 0.484,4.091 0.158,1.35 0.279,2.683 0.331,3.976 0.073,1.292 0.003,2.547 -0.029,3.735 -0.046,1.188 -0.063,2.309 -0.017,3.343 0.128,4.135 0.502,6.885 0.502,6.885 0.046,0.34 0.359,0.578 0.699,0.532 C -0.248,0.498 -0.035,0.272 0,0" />
      </g>
      <g
         transform="matrix(0.35277777,0,0,-0.35277777,96.901709,189.66622)"
         id="g406">
        <path
           inkscape:connector-curvature="0"
           id="path408"
           style="fill:#322824;fill-opacity:1;fill-rule:nonzero;stroke:none"
           d="m 0,0 c 0,0 0.128,-2.135 -0.312,-5.253 -0.1,-0.781 -0.272,-1.618 -0.507,-2.495 -0.213,-0.88 -0.488,-1.798 -0.645,-2.769 -0.162,-0.969 -0.312,-1.975 -0.419,-3.006 -0.113,-1.03 -0.244,-2.076 -0.398,-3.118 -0.349,-2.077 -0.792,-4.141 -1.263,-6.071 -0.229,-0.971 -0.451,-1.91 -0.661,-2.801 -0.255,-0.888 -0.44,-1.735 -0.784,-2.484 -0.156,-0.378 -0.323,-0.732 -0.48,-1.069 -0.147,-0.34 -0.313,-0.654 -0.505,-0.943 -0.369,-0.58 -0.668,-1.075 -0.999,-1.457 -0.704,-0.758 -1.142,-1.108 -1.142,-1.108 -0.267,-0.212 -0.655,-0.168 -0.867,0.098 -0.132,0.166 -0.165,0.38 -0.106,0.569 l 0.046,0.144 c 0,0 0.162,0.507 0.509,1.247 0.159,0.388 0.301,0.92 0.523,1.468 0.226,0.542 0.388,1.243 0.655,1.938 0.261,0.7 0.513,1.5 0.84,2.311 0.329,0.815 0.597,1.715 0.887,2.635 0.247,0.937 0.501,1.906 0.76,2.89 0.241,0.993 0.485,2.002 0.73,3.01 0.261,1.009 0.522,2.018 0.778,3.011 0.246,0.997 0.477,1.982 0.619,2.949 0.16,0.964 0.198,1.915 0.247,2.813 0.041,0.899 0.119,1.742 0.234,2.515 0.444,3.093 1.037,5.115 1.037,5.115 0.097,0.331 0.444,0.521 0.775,0.424 C -0.188,0.487 -0.016,0.255 0,0" />
      </g>
      <g
         transform="matrix(0.35277777,0,0,-0.35277777,130.52221,198.64515)"
         id="g410">
        <path
           inkscape:connector-curvature="0"
           id="path412"
           style="fill:#322824;fill-opacity:1;fill-rule:nonzero;stroke:none"
           d="M 0,0 C 1.403,0.672 7.051,-1.126 6.567,-3.567 6.097,-5.942 1.678,-4.507 0.655,-3.402 -0.368,-2.297 -1.924,-0.921 0,0" />
      </g>
      <g
         transform="matrix(0.35277777,0,0,-0.35277777,130.59724,198.80186)"
         id="g414">
        <path
           inkscape:connector-curvature="0"
           id="path416"
           style="fill:#322824;fill-opacity:1;fill-rule:nonzero;stroke:none"
           d="m 0,0 c 0,0 -0.055,-0.031 -0.158,-0.089 -0.106,-0.048 -0.252,-0.156 -0.333,-0.288 -0.079,-0.15 -0.051,-0.227 0.044,-0.389 0.105,-0.172 0.349,-0.419 0.612,-0.729 0.131,-0.156 0.286,-0.322 0.433,-0.512 0.15,-0.168 0.335,-0.454 0.432,-0.57 0.234,-0.297 0.674,-0.643 1.162,-0.836 0.492,-0.204 1.044,-0.328 1.587,-0.348 0.535,-0.024 1.087,0.065 1.397,0.252 0.155,0.078 0.261,0.227 0.266,0.233 0.006,0.006 0.015,-0.003 0.025,0.015 l 0.033,0.109 0.064,0.218 0.017,0.054 0.004,0.014 C 5.592,-2.841 5.534,-3.055 5.558,-2.963 L 5.557,-2.96 5.555,-2.946 5.549,-2.893 C 5.547,-2.858 5.547,-2.825 5.551,-2.79 5.533,-2.528 5.295,-2.185 4.944,-1.893 4.6,-1.6 4.155,-1.378 3.719,-1.217 3.29,-1.039 2.859,-0.914 2.476,-0.766 1.702,-0.514 1.074,-0.111 0.615,-0.017 0.382,0.02 0.333,0.077 0.157,0.026 0.017,-0.006 -0.058,-0.023 -0.058,-0.023 Z m -0.367,0.912 c 0,0 0.07,0.028 0.203,0.081 C -0.071,1.042 0.307,1.128 0.604,1.18 1.212,1.284 2.111,1.463 3.083,1.163 3.571,1.032 4.075,0.813 4.581,0.515 5.083,0.213 5.602,-0.134 6.102,-0.616 6.584,-1.074 7.146,-1.736 7.194,-2.698 L 7.174,-3.047 7.158,-3.22 7.153,-3.263 7.152,-3.274 C 7.175,-3.186 7.118,-3.405 7.123,-3.384 L 7.118,-3.398 7.099,-3.451 7.021,-3.664 6.982,-3.771 6.885,-3.948 C 6.741,-4.196 6.566,-4.425 6.382,-4.551 6.202,-4.718 6.001,-4.812 5.798,-4.891 4.983,-5.2 4.259,-5.085 3.615,-4.95 2.968,-4.8 2.377,-4.592 1.806,-4.374 c -0.567,0.238 -1.13,0.399 -1.687,0.794 -0.3,0.228 -0.436,0.342 -0.635,0.524 -0.189,0.171 -0.36,0.353 -0.521,0.549 -0.321,0.39 -0.579,0.841 -0.677,1.39 -0.121,0.565 0.15,1.17 0.429,1.408 0.265,0.276 0.494,0.385 0.634,0.473 0.147,0.081 0.226,0.124 0.226,0.124 z" />
      </g>
      <g
         transform="matrix(0.35277777,0,0,-0.35277777,100.8809,201.45979)"
         id="g418">
        <path
           inkscape:connector-curvature="0"
           id="path420"
           style="fill:#322824;fill-opacity:1;fill-rule:nonzero;stroke:none"
           d="M 0,0 C 1.044,1.285 6.146,-0.88 6.551,-3.235 6.869,-5.085 4.545,-5.431 2.668,-4.99 0.791,-4.548 -1.435,-1.767 0,0" />
      </g>
      <g
         transform="matrix(0.35277777,0,0,-0.35277777,100.94832,201.51454)"
         id="g422">
        <path
           inkscape:connector-curvature="0"
           id="path424"
           style="fill:#322824;fill-opacity:1;fill-rule:nonzero;stroke:none"
           d="m 0,0 c 0.023,-0.01 -0.209,-0.202 -0.324,-0.662 -0.029,-0.233 -0.058,-0.52 0.042,-0.842 0.085,-0.319 0.239,-0.667 0.461,-1.026 0.212,-0.363 0.495,-0.733 0.833,-1.097 0.338,-0.358 0.775,-0.695 1.258,-0.872 0.518,-0.167 1.107,-0.233 1.679,-0.207 0.567,0.032 1.159,0.148 1.569,0.434 0.197,0.147 0.343,0.311 0.41,0.511 0.039,0.105 0.044,0.201 0.053,0.293 C 5.978,-3.37 5.963,-3.118 5.933,-3.083 5.821,-2.618 5.498,-2.168 5.109,-1.809 4.323,-1.082 3.356,-0.658 2.565,-0.325 2.158,-0.181 1.789,-0.036 1.459,0.063 1.131,0.165 0.828,0.223 0.603,0.211 0.474,0.221 0.392,0.197 0.334,0.18 0.267,0.172 0.204,0.164 0.144,0.103 0.029,0.015 -0.032,-0.032 -0.032,-0.032 Z m -0.35,0.343 c 0,0 0.057,0.052 0.164,0.148 0.073,0.077 0.429,0.275 0.7,0.313 C 0.819,0.894 1.183,0.908 1.593,0.89 2.007,0.88 2.453,0.78 2.918,0.617 3.843,0.285 4.833,-0.313 5.714,-1.196 6.154,-1.629 6.578,-2.184 6.738,-2.91 6.795,-3.165 6.78,-3.225 6.79,-3.429 6.781,-3.643 6.749,-3.851 6.675,-4.035 6.532,-4.413 6.244,-4.728 5.921,-4.91 5.269,-5.273 4.588,-5.317 3.952,-5.306 c -0.64,0.036 -1.251,0.122 -1.833,0.31 -0.611,0.206 -1.114,0.517 -1.56,0.866 -0.447,0.35 -0.795,0.771 -1.057,1.201 -0.264,0.429 -0.391,0.898 -0.433,1.316 -0.057,0.419 0.021,0.798 0.106,1.087 0.2,0.58 0.46,0.827 0.443,0.837 z" />
      </g>
      <g
         transform="matrix(0.35277777,0,0,-0.35277777,93.986072,200.62184)"
         id="g426">
        <path
           inkscape:connector-curvature="0"
           id="path428"
           style="fill:#322824;fill-opacity:1;fill-rule:nonzero;stroke:none"
           d="M 0,0 C 1.044,1.285 6.146,-0.88 6.551,-3.235 6.869,-5.085 4.545,-5.431 2.668,-4.99 0.791,-4.548 -1.435,-1.767 0,0" />
      </g>
      <g
         transform="matrix(0.35277777,0,0,-0.35277777,94.053488,200.67659)"
         id="g430">
        <path
           inkscape:connector-curvature="0"
           id="path432"
           style="fill:#322824;fill-opacity:1;fill-rule:nonzero;stroke:none"
           d="m 0,0 c 0.023,-0.01 -0.209,-0.202 -0.324,-0.662 -0.029,-0.233 -0.058,-0.52 0.042,-0.842 0.085,-0.319 0.239,-0.667 0.461,-1.026 0.212,-0.363 0.495,-0.733 0.833,-1.097 0.338,-0.358 0.775,-0.695 1.258,-0.872 0.518,-0.167 1.107,-0.233 1.679,-0.207 0.567,0.032 1.159,0.148 1.569,0.434 0.197,0.147 0.343,0.311 0.41,0.511 0.039,0.105 0.044,0.201 0.053,0.293 C 5.978,-3.37 5.963,-3.118 5.933,-3.083 5.821,-2.618 5.498,-2.168 5.109,-1.809 4.323,-1.082 3.356,-0.658 2.565,-0.325 2.158,-0.181 1.789,-0.036 1.459,0.063 1.131,0.165 0.828,0.223 0.603,0.211 0.474,0.221 0.392,0.197 0.334,0.18 0.267,0.172 0.204,0.164 0.144,0.103 0.029,0.015 -0.032,-0.032 -0.032,-0.032 Z m -0.35,0.343 c 0,0 0.057,0.052 0.164,0.148 0.073,0.077 0.429,0.275 0.7,0.313 C 0.819,0.894 1.183,0.908 1.593,0.89 2.007,0.88 2.453,0.78 2.918,0.617 3.843,0.285 4.833,-0.313 5.714,-1.196 6.154,-1.629 6.578,-2.184 6.738,-2.91 6.795,-3.165 6.78,-3.225 6.79,-3.429 6.781,-3.643 6.749,-3.851 6.675,-4.035 6.532,-4.413 6.244,-4.728 5.921,-4.91 5.269,-5.273 4.588,-5.317 3.952,-5.306 c -0.64,0.036 -1.251,0.122 -1.833,0.31 -0.611,0.206 -1.114,0.517 -1.56,0.866 -0.447,0.35 -0.795,0.771 -1.057,1.201 -0.264,0.429 -0.391,0.898 -0.433,1.316 -0.057,0.419 0.021,0.798 0.106,1.087 0.2,0.58 0.46,0.827 0.443,0.837 z" />
      </g>
      <g
         transform="matrix(0.35277777,0,0,-0.35277777,125.61175,200.83993)"
         id="g434">
        <path
           inkscape:connector-curvature="0"
           id="path436"
           style="fill:#322824;fill-opacity:1;fill-rule:nonzero;stroke:none"
           d="M 0,0 C 0.196,-1.374 -1.243,-2.349 -4.352,-1.382 -7.46,-0.414 -7.676,2.372 -6.981,3.155 -6.286,3.937 -0.276,1.934 0,0" />
      </g>
      <g
         transform="matrix(0.35277777,0,0,-0.35277777,125.43974,200.86448)"
         id="g438">
        <path
           inkscape:connector-curvature="0"
           id="path440"
           style="fill:#322824;fill-opacity:1;fill-rule:nonzero;stroke:none"
           d="M 0,0 C 0,0 -0.021,0.042 -0.046,0.123 -0.043,0.204 -0.161,0.333 -0.287,0.487 -0.376,0.556 -0.475,0.632 -0.582,0.715 -0.708,0.784 -0.844,0.86 -0.99,0.941 -1.297,1.09 -1.656,1.231 -2.031,1.432 -2.801,1.777 -3.656,2.441 -4.724,2.721 -4.988,2.775 -5.26,2.834 -5.523,2.841 -5.661,2.859 -5.774,2.839 -5.894,2.83 -5.976,2.829 -5.972,2.809 -5.967,2.813 -5.981,2.795 -5.934,2.884 -6.022,2.808 -6.037,2.844 -6.103,2.614 -6.105,2.423 c -0.012,-0.205 0.022,-0.441 0.08,-0.662 0.124,-0.447 0.336,-0.88 0.664,-1.22 0.308,-0.338 0.751,-0.627 1.138,-0.785 0.476,-0.197 0.961,-0.299 1.441,-0.351 0.464,-0.06 0.891,-0.084 1.241,-0.091 0.7,0.017 1.145,-0.053 1.375,0.182 0.116,0.125 0.149,0.223 0.161,0.319 0.001,0.144 0.001,0.221 0.001,0.221 z m 0.979,0.103 c 0,0 0.011,-0.076 0.032,-0.219 0.009,-0.187 0.027,-0.527 -0.09,-0.889 -0.106,-0.379 -0.387,-0.842 -0.833,-1.163 -0.435,-0.341 -1.002,-0.509 -1.566,-0.539 -0.571,-0.046 -1.141,0.064 -1.707,0.22 -0.552,0.162 -1.142,0.378 -1.712,0.656 -0.661,0.312 -1.219,0.716 -1.706,1.292 -0.469,0.569 -0.815,1.276 -0.915,2.036 -0.036,0.382 -0.049,0.769 0.058,1.166 0.124,0.38 0.234,0.831 0.775,1.146 0.132,0.076 0.619,0.182 0.748,0.146 0.178,-0.017 0.364,-0.02 0.519,-0.051 C -5.089,3.858 -4.79,3.789 -4.49,3.729 -3.905,3.583 -3.323,3.505 -2.783,3.365 -2.237,3.244 -1.738,3.054 -1.303,2.824 -0.866,2.591 -0.508,2.287 -0.208,1.999 0.092,1.702 0.328,1.405 0.515,1.146 0.692,0.861 0.834,0.646 0.887,0.437 0.944,0.243 0.975,0.139 0.975,0.139 Z" />
      </g>
      <g
         id="g442"
         transform="matrix(0.35277777,0,0,-0.35277777,43.766144,318.46277)">
        <g
           id="g444" />
        <g
           id="g456">
          <g
             style="opacity:0.19999701"
             id="g454"
             clip-path="url(#clipPath448)">
            <g
               id="g452"
               transform="translate(196.5015,375.1111)">
              <path
                 inkscape:connector-curvature="0"
                 id="path450"
                 style="fill:#672382;fill-opacity:1;fill-rule:nonzero;stroke:none"
                 d="M 0,0 C -1.118,0.673 -2.21,1.384 -3.264,2.145 -2.148,1.529 -1.055,0.806 0,0 m 14.685,-7.576 c -2.004,0.484 -4.009,1.506 -5.926,2.6 -1.057,1.346 -2.24,2.671 -3.52,3.927 0.64,-0.122 1.21,0.193 1.546,0.655 3.091,-1.981 5.898,-4.399 7.9,-7.182 m 3.804,-0.965 C 14.374,-0.861 5.474,4.154 -2.476,6.96 -3.4,7.286 -4.218,6.404 -4.225,5.552 -5.73,6.19 -7.258,6.64 -8.779,6.845 -10.092,7.022 -11.041,5.676 -10.093,4.588 -6.148,0.064 -0.896,-2.803 4.354,-5.561 5.187,-5.999 6.036,-6.487 6.899,-6.982 7.442,-7.698 7.936,-8.413 8.391,-9.119 7.786,-9.166 7.148,-9.105 6.488,-8.947 4.739,-7.44 2.743,-6.191 0.763,-4.931 c -4.665,2.971 -9.026,6.298 -14.127,8.516 -1.541,0.669 -2.917,-1.525 -1.35,-2.309 5.029,-2.516 9.251,-6.586 14.046,-9.524 -3.353,1.677 -6.605,3.532 -9.79,5.519 -3.405,2.425 -6.866,4.773 -10.452,6.917 -1.517,0.907 -2.734,-1.329 -1.359,-2.325 3.637,-2.634 7.337,-5.189 11.147,-7.548 0.485,-0.353 0.971,-0.702 1.457,-1.057 2.421,-1.765 7.049,-4.131 8.512,-7.232 -5.069,1.194 -9.543,4.696 -14.001,7.209 -1.425,0.804 -2.887,1.606 -4.326,2.452 -3.002,2.504 -5.942,5.09 -8.917,7.616 -1.15,0.976 -3.236,-0.307 -2.245,-1.732 0.071,-0.102 0.153,-0.189 0.225,-0.289 0,0 -10e-4,0 -10e-4,-0.001 0.002,-0.002 0.004,-0.003 0.006,-0.005 2.41,-3.332 5.649,-5.704 9.103,-7.798 0.986,-0.823 1.978,-1.638 2.981,-2.438 1.999,-1.593 4.154,-3.033 6.094,-4.691 -9.233,3.968 -16.694,11.112 -24.197,17.775 -1.17,1.039 -3.353,-0.356 -2.311,-1.782 3.763,-5.148 7.383,-10.284 11.872,-14.607 -3.66,1.618 -7.12,3.63 -10.172,6.341 -4.413,3.92 -6.441,9.544 -10.289,13.92 -0.622,0.707 -1.812,-0.213 -1.305,-1.007 3.759,-5.879 5.976,-11.991 11.581,-16.486 5.215,-4.181 11.4,-6.671 17.761,-8.523 1.542,-0.449 2.467,1.772 1.088,2.58 -3.587,2.1 -6.561,4.785 -9.23,7.768 5.939,-4.773 12.345,-8.852 19.866,-10.814 1.211,-0.316 2.481,1.094 1.714,2.231 -0.363,0.538 -0.758,1.037 -1.165,1.521 2.421,-1.167 4.951,-2.058 7.716,-2.344 0.72,-0.075 1.422,0.696 1.386,1.387 -0.069,1.333 -0.527,2.509 -1.209,3.569 2.458,-1.101 4.972,-2.091 7.558,-2.933 1.162,-0.378 2.1,1.006 1.538,2.002 -0.266,0.471 -0.557,0.917 -0.868,1.342 0.701,0.083 1.396,0.267 2.076,0.594 0.591,0.285 0.762,1.045 0.563,1.634 1.796,-0.743 3.652,-1.224 5.571,-1.112 1.045,0.061 1.685,1.11 1.179,2.054" />
            </g>
          </g>
        </g>
      </g>
      <g
         id="g458"
         transform="matrix(0.35277777,0,0,-0.35277777,43.766144,318.46277)">
        <g
           id="g460" />
        <g
           id="g472">
          <g
             style="opacity:0.19999701"
             id="g470"
             clip-path="url(#clipPath464)">
            <g
               id="g468"
               transform="translate(219.0358,376.224)">
              <path
                 inkscape:connector-curvature="0"
                 id="path466"
                 style="fill:#672382;fill-opacity:1;fill-rule:nonzero;stroke:none"
                 d="M 0,0 C -1.144,0.319 -2.291,0.786 -3.425,1.356 -5.839,3.73 -8.881,5.593 -11.749,7.483 -9.963,6.553 -8.072,5.622 -6.241,4.589 -5.578,4.185 -4.916,3.783 -4.249,3.395 -2.693,2.4 -1.237,1.294 0,0 m 18.119,18.481 c -1.803,2.058 -4.149,3.265 -6.474,4.539 1.678,-0.256 3.352,-0.719 4.817,-1.113 1.155,-0.311 1.979,1.437 0.839,1.989 -3.468,1.681 -7.286,3.079 -11.145,2.035 -1.036,-0.281 -1.63,-1.849 -0.687,-2.6 1.054,-0.84 2.221,-1.534 3.408,-2.2 -0.99,0.374 -1.98,0.759 -2.981,1.13 -1.627,0.604 -2.356,-1.528 -1.513,-2.598 1.503,-1.905 4.058,-2.597 6.042,-3.884 -2.956,0.571 -5.869,2.535 -8.612,3.367 -1.454,0.44 -2.622,-1.527 -1.498,-2.573 1.979,-1.84 4.881,-2.982 6.985,-4.777 -4.118,1.109 -7.886,4.215 -11.59,6.042 -1.49,0.735 -3.134,-1.121 -1.842,-2.386 2.906,-2.844 7.729,-4.548 10.625,-7.596 -3.914,1.65 -7.38,4.395 -11.379,5.941 -1.349,0.521 -2.615,-1.59 -1.451,-2.492 3.153,-2.442 7.051,-4.435 9.739,-7.444 -1.094,0.342 -2.154,0.807 -3.194,1.344 -1.637,1.118 -3.389,2.107 -5.147,3.044 -1.601,0.976 -3.212,1.897 -4.891,2.545 -1.285,0.497 -2.194,-1.12 -1.659,-2.136 -0.396,0.276 -0.786,0.555 -1.165,0.838 -1.292,0.969 -2.968,-1.196 -1.734,-2.247 3.287,-2.799 7.319,-6.284 11.665,-8.48 0.386,-0.425 0.735,-0.874 1.061,-1.337 -4.838,1.706 -9.121,5.494 -13.494,7.909 -1.082,0.598 -1.945,-0.946 -0.956,-1.636 5.124,-3.575 10.348,-8.712 16.749,-9.703 0.94,-0.145 2.096,0.603 1.702,1.703 -0.17,0.477 -0.372,0.931 -0.589,1.373 1.168,-0.287 2.347,-0.457 3.53,-0.447 1.092,0.009 1.809,1.223 1.249,2.176 C 4.195,-0.624 3.82,-0.091 3.426,0.424 3.818,0.37 4.216,0.332 4.623,0.311 5.814,0.252 6.367,1.591 5.898,2.534 5.534,3.27 5.104,3.945 4.634,4.581 5.544,4.249 6.485,3.978 7.474,3.802 8.498,3.621 9.754,4.475 9.326,5.654 8.924,6.759 8.372,7.711 7.719,8.562 8.694,8.374 9.693,8.28 10.726,8.331 c 1.25,0.061 1.787,1.233 1.322,2.304 -0.339,0.782 -0.775,1.451 -1.279,2.044 1.161,-0.17 2.349,-0.163 3.585,0.131 1.014,0.241 1.369,1.421 0.925,2.273 -0.219,0.421 -0.474,0.789 -0.752,1.124 0.815,-0.165 1.64,-0.306 2.488,-0.392 1.459,-0.147 1.907,1.75 1.104,2.666" />
            </g>
          </g>
        </g>
      </g>
      <g
         id="g474"
         transform="matrix(0.35277777,0,0,-0.35277777,43.766144,318.46277)">
        <g
           id="g476" />
        <g
           id="g488">
          <g
             style="opacity:0.19999701"
             id="g486"
             clip-path="url(#clipPath480)">
            <g
               id="g484"
               transform="translate(238.9025,462.6867)">
              <path
                 inkscape:connector-curvature="0"
                 id="path482"
                 style="fill:#672382;fill-opacity:1;fill-rule:nonzero;stroke:none"
                 d="M 0,0 C -0.773,0.437 -1.507,0.939 -2.249,1.426 -0.907,0.825 0.65,0.513 1.782,-0.418 3.135,-1.531 0.6,-0.34 0,0 M -2.406,3.26 C -3.162,3.306 -3.458,2.319 -2.985,1.844 -4.07,2.236 -5.194,0.715 -4.222,-0.141 c 1.036,-0.911 6.271,-6.041 2.831,-5.29 -1.496,0.326 -3.295,2.222 -4.531,3.937 -0.422,0.764 -0.835,1.41 -1.136,1.815 -0.8,1.075 -2.455,0.171 -1.825,-1.066 0.285,-0.56 0.725,-1.268 1.265,-2.016 1.059,-1.894 2.133,-4.407 0.954,-4.977 -1.424,-0.688 -3.446,2.879 -3.862,3.684 -0.831,1.606 -1.57,3.604 -1.737,5.42 -0.04,0.443 -0.723,0.613 -0.832,0.112 -0.789,-3.628 1.943,-12.084 6.901,-11.259 1.826,0.304 2.289,1.647 2.104,3.276 1.603,-1.226 3.352,-1.911 4.89,-1.179 2.008,0.955 1.926,2.564 1.061,4.202 1.634,-0.414 3.039,-0.082 3.387,2.07 0.57,3.511 -5.23,4.524 -7.654,4.672" />
            </g>
          </g>
        </g>
      </g>
      <g
         transform="matrix(0.35277777,0,0,-0.35277777,129.97844,155.84401)"
         id="g490">
        <path
           inkscape:connector-curvature="0"
           id="path492"
           style="fill:#322824;fill-opacity:1;fill-rule:nonzero;stroke:none"
           d="m 0,0 c -2.556,-1.703 -4.572,0.261 -6.517,1.79 -0.817,0.643 -1.98,-0.508 -1.154,-1.154 0.737,-0.576 1.371,-1.253 1.956,-1.983 1.034,-1.289 2.072,-2.224 0.915,-3.458 -2.141,-2.282 -6.402,3.293 -7.779,4.914 -0.354,0.416 -0.9,-0.104 -0.694,-0.539 l -0.018,-0.011 c 0.322,-0.456 0.772,-1.083 1.31,-1.77 1.207,-1.81 2.429,-4.356 0.159,-4.98 -0.773,-0.212 -2.531,1.887 -3.032,2.414 -2.034,2.139 -3.635,4.772 -4.665,7.526 -0.03,0.08 -0.145,0.049 -0.128,-0.035 0.959,-4.738 4.317,-9.919 9.095,-11.441 0.274,-0.087 0.518,0.105 0.611,0.347 0.586,1.532 0.4,2.778 -0.102,3.954 2.123,-2.139 4.761,-3.78 6.917,-1.728 1.123,1.068 0.837,2.439 0.057,3.776 1.423,-0.451 2.795,-0.202 3.796,1.65 C 0.966,-0.285 0.464,0.309 0,0" />
      </g>
      <g
         transform="matrix(0.35277777,0,0,-0.35277777,114.76059,175.85737)"
         id="g494">
        <path
           inkscape:connector-curvature="0"
           id="path496"
           style="fill:#322824;fill-opacity:1;fill-rule:nonzero;stroke:none"
           d="M 0,0 C -0.416,-0.579 -1.066,-0.835 -1.664,-1.173 -2.177,-1.464 -2.66,-1.788 -3.155,-2.108 -4.167,-2.76 -4.782,-3.324 -5.3,-4.411 c -0.224,-0.471 0.143,-0.931 0.647,-0.842 1.365,0.24 2.164,0.85 3.083,1.881 0.406,0.455 0.77,0.939 1.056,1.48 0.302,0.571 0.446,1.175 0.83,1.707 C 0.453,0.007 0.136,0.189 0,0" />
      </g>
      <g
         transform="matrix(0.35277777,0,0,-0.35277777,115.56351,176.75399)"
         id="g498">
        <path
           inkscape:connector-curvature="0"
           id="path500"
           style="fill:#322824;fill-opacity:1;fill-rule:nonzero;stroke:none"
           d="m 0,0 c -0.609,-0.228 -1.128,-0.296 -1.698,-0.664 -0.746,-0.48 -1.352,-1.141 -1.961,-1.777 -1.069,-1.118 -2.651,-2.567 -2.895,-4.178 -0.06,-0.396 0.239,-0.82 0.684,-0.685 1.508,0.458 2.42,2.068 3.292,3.27 0.528,0.728 1.066,1.453 1.574,2.194 0.374,0.547 0.605,1.293 1.036,1.784 C 0.052,-0.033 0.034,0.013 0,0" />
      </g>
      <g
         transform="matrix(0.35277777,0,0,-0.35277777,116.7317,176.00405)"
         id="g502">
        <path
           inkscape:connector-curvature="0"
           id="path504"
           style="fill:#322824;fill-opacity:1;fill-rule:nonzero;stroke:none"
           d="m 0,0 c -0.027,0.131 -0.227,0.098 -0.228,-0.031 -0.015,-1.226 -0.723,-2.456 -1.192,-3.56 -0.369,-0.867 -0.62,-1.803 -0.841,-2.717 -0.085,-0.352 0.388,-0.696 0.652,-0.38 0.788,0.943 1.495,1.951 1.779,3.161 C 0.47,-2.254 0.26,-1.244 0,0" />
      </g>
      <g
         transform="matrix(0.35277777,0,0,-0.35277777,105.68715,179.3153)"
         id="g506">
        <path
           inkscape:connector-curvature="0"
           id="path508"
           style="fill:#322824;fill-opacity:1;fill-rule:nonzero;stroke:none"
           d="m 0,0 c -2.646,0.296 -5.393,-1.561 -7.696,-2.621 -0.459,-0.212 -0.219,-0.94 0.252,-0.929 2.668,0.06 5.773,1.135 7.597,3.181 C 0.285,-0.22 0.186,-0.021 0,0" />
      </g>
      <g
         transform="matrix(0.35277777,0,0,-0.35277777,107.526,179.57833)"
         id="g510">
        <path
           inkscape:connector-curvature="0"
           id="path512"
           style="fill:#322824;fill-opacity:1;fill-rule:nonzero;stroke:none"
           d="m 0,0 c -3.401,-2.321 -6.785,-4.787 -9.541,-7.904 -0.39,-0.441 -0.019,-1.179 0.59,-1.013 4.312,1.168 6.607,5.353 9.203,8.591 C 0.387,-0.158 0.212,0.145 0,0" />
      </g>
      <g
         transform="matrix(0.35277777,0,0,-0.35277777,108.26461,180.12079)"
         id="g514">
        <path
           inkscape:connector-curvature="0"
           id="path516"
           style="fill:#322824;fill-opacity:1;fill-rule:nonzero;stroke:none"
           d="m 0,0 c -0.026,0.105 -0.119,0.153 -0.216,0.165 -0.924,0.114 -2.018,-1.048 -2.688,-1.582 -1.026,-0.816 -1.769,-1.825 -2.43,-2.953 -0.299,-0.511 0.297,-1.103 0.807,-0.807 1.191,0.69 2.251,1.418 3.126,2.491 C -0.866,-2.029 0.226,-0.926 0,0" />
      </g>
      <g
         transform="matrix(0.35277777,0,0,-0.35277777,114.92132,187.37507)"
         id="g518">
        <path
           inkscape:connector-curvature="0"
           id="path520"
           style="fill:#322824;fill-opacity:1;fill-rule:nonzero;stroke:none"
           d="m 0,0 c -1.95,-1.692 -3.956,-3.389 -6.031,-4.924 -1.279,-0.946 -3.553,-1.772 -4.314,-3.215 -0.034,-0.063 -0.021,-0.159 0.05,-0.193 1.694,-0.8 4.215,0.967 5.564,1.868 2.302,1.538 4.175,3.413 5.644,5.759 C 1.28,-0.119 0.479,0.416 0,0" />
      </g>
      <g
         transform="matrix(0.35277777,0,0,-0.35277777,115.55279,188.1316)"
         id="g522">
        <path
           inkscape:connector-curvature="0"
           id="path524"
           style="fill:#322824;fill-opacity:1;fill-rule:nonzero;stroke:none"
           d="m 0,0 c -0.76,-0.785 -1.536,-1.553 -2.244,-2.387 -0.656,-0.772 -1.482,-1.514 -1.953,-2.418 -0.139,-0.266 0.101,-0.717 0.441,-0.574 0.975,0.412 1.817,1.204 2.587,1.917 0.857,0.794 1.519,1.747 2.043,2.787 C 1.149,-0.13 0.459,0.474 0,0" />
      </g>
      <g
         transform="matrix(0.35277777,0,0,-0.35277777,126.31279,177.44758)"
         id="g526">
        <path
           inkscape:connector-curvature="0"
           id="path528"
           style="fill:#322824;fill-opacity:1;fill-rule:nonzero;stroke:none"
           d="m 0,0 c -0.167,0.227 -0.5,0.264 -0.66,0 -0.599,-0.989 -0.72,-2.281 -1.147,-3.36 -0.498,-1.257 -1.011,-2.415 -1.251,-3.757 -0.105,-0.588 0.569,-1.07 1.042,-0.606 1.097,1.076 1.761,2.343 2.142,3.83 C 0.432,-2.697 0.784,-1.068 0,0" />
      </g>
      <g
         transform="matrix(0.35277777,0,0,-0.35277777,127.72179,178.34974)"
         id="g530">
        <path
           inkscape:connector-curvature="0"
           id="path532"
           style="fill:#322824;fill-opacity:1;fill-rule:nonzero;stroke:none"
           d="M 0,0 C -0.162,0.571 -0.206,1.127 -0.423,1.686 -0.616,2.185 -0.83,2.87 -0.643,3.39 -0.587,3.546 -0.818,3.629 -0.901,3.499 -1.33,2.828 -1.645,2.353 -1.705,1.526 -1.765,0.69 -1.356,0.092 -0.736,-0.428 -0.416,-0.697 0.128,-0.451 0,0" />
      </g>
    </g>
  </g>
</svg>
