<?xml version="1.0" encoding="UTF-8" standalone="no"?>
<!-- Created with Inkscape (http://www.inkscape.org/) -->

<svg
   xmlns:dc="http://purl.org/dc/elements/1.1/"
   xmlns:cc="http://creativecommons.org/ns#"
   xmlns:rdf="http://www.w3.org/1999/02/22-rdf-syntax-ns#"
   xmlns:svg="http://www.w3.org/2000/svg"
   xmlns="http://www.w3.org/2000/svg"
   xmlns:sodipodi="http://sodipodi.sourceforge.net/DTD/sodipodi-0.dtd"
   xmlns:inkscape="http://www.inkscape.org/namespaces/inkscape"
   width="210mm"
   height="297mm"
   viewBox="0 0 210 297"
   version="1.1"
   id="svg4545"
   inkscape:version="0.92.4 (5da689c313, 2019-01-14)"
   sodipodi:docname="dog_category.svg">
  <defs
     id="defs4539">
    <clipPath
       clipPathUnits="userSpaceOnUse"
       id="clipPath4245">
      <path
         d="m 189.868,332.734 h 40.391 v -32.308 h -40.391 z"
         id="path4243"
         inkscape:connector-curvature="0" />
    </clipPath>
    <clipPath
       clipPathUnits="userSpaceOnUse"
       id="clipPath4205">
      <path
         d="m 234.541,295.164 h 13.154 v -20.52 h -13.154 z"
         id="path4203"
         inkscape:connector-curvature="0" />
    </clipPath>
  </defs>
  <sodipodi:namedview
     id="base"
     pagecolor="#ffffff"
     bordercolor="#666666"
     borderopacity="1.0"
     inkscape:pageopacity="0.0"
     inkscape:pageshadow="2"
     inkscape:zoom="0.35"
     inkscape:cx="400"
     inkscape:cy="560"
     inkscape:document-units="mm"
     inkscape:current-layer="layer1"
     showgrid="false"
     inkscape:window-width="1920"
     inkscape:window-height="986"
     inkscape:window-x="-11"
     inkscape:window-y="-11"
     inkscape:window-maximized="1" />
  <metadata
     id="metadata4542">
    <rdf:RDF>
      <cc:Work
         rdf:about="">
        <dc:format>image/svg+xml</dc:format>
        <dc:type
           rdf:resource="http://purl.org/dc/dcmitype/StillImage" />
        <dc:title></dc:title>
      </cc:Work>
    </rdf:RDF>
  </metadata>
  <g
     inkscape:label="Layer 1"
     inkscape:groupmode="layer"
     id="layer1">
    <g
       id="g4703"
       transform="matrix(2.7713092,0,0,2.7713092,-119.69098,-154.31302)">
      <g
         transform="matrix(0.35277777,0,0,-0.35277777,72.519419,144.91985)"
         id="g4163">
        <path
           inkscape:connector-curvature="0"
           id="path4165"
           style="fill:#cc8e11;fill-opacity:1;fill-rule:nonzero;stroke:none"
           d="M 0,0 C 0,0 -0.127,-0.064 -0.374,-0.187 -0.58,-0.283 -0.863,-0.408 -1.203,-0.54 -1.889,-0.806 -2.84,-1.124 -4.049,-1.398 c -1.207,-0.276 -2.678,-0.498 -4.363,-0.541 -1.681,-0.042 -3.581,0.083 -5.56,0.533 -1.978,0.443 -4.027,1.188 -5.982,2.231 -1.958,1.041 -3.816,2.372 -5.499,3.899 -1.686,1.526 -3.202,3.244 -4.561,5.057 -0.348,0.449 -0.68,0.907 -0.992,1.378 l -0.478,0.699 -0.239,0.351 c 0.014,-0.02 -0.177,0.242 -0.102,0.142 l -0.012,0.021 -0.024,0.043 -0.049,0.085 -0.097,0.171 -0.197,0.345 -0.275,0.52 -0.263,0.524 -0.191,0.461 c -0.26,0.614 -0.449,1.217 -0.626,1.817 -0.669,2.394 -0.881,4.696 -0.928,6.924 -0.029,2.225 0.12,4.373 0.414,6.417 0.58,4.087 1.66,7.759 2.919,10.747 1.248,2.995 2.688,5.281 3.817,6.759 0.563,0.741 1.034,1.296 1.376,1.656 0.336,0.362 0.515,0.555 0.515,0.555 0,0 -0.14,-0.222 -0.404,-0.639 -0.267,-0.412 -0.624,-1.04 -1.032,-1.856 -0.821,-1.626 -1.776,-4.051 -2.415,-7.065 -0.653,-3.004 -1.006,-6.589 -0.836,-10.359 0.079,-1.883 0.31,-3.81 0.69,-5.693 0.387,-1.874 0.948,-3.729 1.728,-5.276 0.197,-0.379 0.398,-0.752 0.619,-1.069 l 0.159,-0.241 0.134,-0.154 0.121,-0.156 0.253,-0.298 0.919,-0.953 c 0.328,-0.351 0.668,-0.681 1.014,-0.995 1.364,-1.288 2.779,-2.412 4.196,-3.302 2.838,-1.808 5.635,-2.579 7.884,-2.651 2.261,-0.072 4.027,0.471 5.13,0.957 0.552,0.245 0.939,0.471 1.148,0.612 0.108,0.071 0.16,0.117 0.18,0.138 -0.004,0.005 -0.058,-0.02 -0.069,-0.025 0.022,0.016 0.033,0.024 0.033,0.024 z" />
      </g>
      <g
         transform="matrix(0.35277777,0,0,-0.35277777,90.520219,154.34805)"
         id="g4167">
        <path
           inkscape:connector-curvature="0"
           id="path4169"
           style="fill:#ffe5c5;fill-opacity:1;fill-rule:nonzero;stroke:none"
           d="m 0,0 c 0.598,3.788 1.226,7.293 1.829,10.581 1.96,10.703 3.647,19.108 3.182,27.507 -0.759,5.575 -1.889,10.945 -3.567,15.586 -0.873,2.159 -1.927,4.394 -3.186,6.733 -3.121,5 -7.408,8.155 -13.299,8.155 -11.992,0 -19.558,-13.054 -23.725,-27.388 -1.459,-12.052 1.957,-23.545 4.74,-41.174 1.442,-9.128 -0.214,-14.142 -3.014,-16.79 l 39.232,0.892 0.002,0.006 C -0.089,-13.062 -1.293,-8.191 0,0" />
      </g>
      <g
         transform="matrix(0.35277777,0,0,-0.35277777,78.516639,154.34805)"
         id="g4171">
        <path
           inkscape:connector-curvature="0"
           id="path4173"
           style="fill:#cc8e11;fill-opacity:1;fill-rule:nonzero;stroke:none"
           d="M 0,0 C -2.783,17.629 -6.199,29.122 -4.74,41.174 -8.64,27.762 -9.564,13.229 -8.353,7.218 c 1.764,-8.762 2.257,-22.451 -4.677,-26.589 3.16,-0.36 7.176,-0.108 10.016,2.581 2.8,2.648 4.455,7.662 3.014,16.79" />
      </g>
      <g
         transform="matrix(0.35277777,0,0,-0.35277777,92.817749,153.84883)"
         id="g4175">
        <path
           inkscape:connector-curvature="0"
           id="path4177"
           style="fill:#cc8e11;fill-opacity:1;fill-rule:nonzero;stroke:none"
           d="M 0,0 C 0,8.345 0.345,23.108 -1.501,36.673 -1.037,28.274 -2.724,19.869 -4.684,9.166 -5.287,5.878 -5.915,2.373 -6.513,-1.415 c -1.293,-8.191 -0.089,-13.062 2.194,-15.892 3.011,-3.733 7.9,-3.905 11.444,-3.4 C 2.481,-17.539 0,-10.387 0,0" />
      </g>
      <g
         transform="matrix(0.35277777,0,0,-0.35277777,89.905609,133.03769)"
         id="g4179">
        <path
           inkscape:connector-curvature="0"
           id="path4181"
           style="fill:#cc8e11;fill-opacity:1;fill-rule:nonzero;stroke:none"
           d="M 0,0 C 1.259,-2.339 2.313,-4.574 3.187,-6.733 2.29,-4.253 1.237,-1.981 0,0" />
      </g>
      <g
         transform="matrix(0.35277777,0,0,-0.35277777,98.213279,154.72598)"
         id="g4183">
        <path
           inkscape:connector-curvature="0"
           id="path4185"
           style="fill:#ffbf6e;fill-opacity:1;fill-rule:nonzero;stroke:none"
           d="m 0,0 c 0,0 7.118,52.435 -4.088,78.961 -11.206,26.527 -20.326,35.228 -12.865,56.228 h -50.586 c 0,0 13.384,-28.043 0.899,-47.109 -12.486,-19.065 -23.086,-58.963 -15.298,-87.976 0,0 -20.222,-8.342 0,-17.461 5.97,-2.692 10.17,-2.65 13.075,-0.916 6.934,4.137 6.441,17.813 4.677,26.575 -1.211,6.011 -0.287,20.538 3.613,33.95 4.167,14.334 11.733,27.384 23.725,27.384 5.891,0 10.178,-3.156 13.299,-8.156 1.237,-1.981 2.289,-4.253 3.186,-6.734 1.677,-4.641 2.808,-10.012 3.567,-15.587 1.847,-13.564 1.502,-28.328 1.502,-36.673 0,-10.386 2.481,-17.539 7.125,-20.707 3.509,-2.394 8.253,-2.513 14.103,-0.015 C 19.522,-12.436 0,0 0,0" />
      </g>
      <g
         transform="matrix(0.35277777,0,0,-0.35277777,93.402199,59.682139)"
         id="g4187">
        <path
           inkscape:connector-curvature="0"
           id="path4189"
           style="fill:#cc8e11;fill-opacity:1;fill-rule:nonzero;stroke:none"
           d="m 0,0 c 0,0 5.326,9.481 20.343,6.235 18.283,-3.955 36.717,-19.293 31.98,-60.741 -4.737,-41.449 1.169,-70.67 -5.682,-78.959 -6.85,-8.288 -24.259,29.842 -24.259,29.842" />
      </g>
      <g
         transform="matrix(0.35277777,0,0,-0.35277777,72.170939,62.314039)"
         id="g4191">
        <path
           inkscape:connector-curvature="0"
           id="path4193"
           style="fill:#cc8e11;fill-opacity:1;fill-rule:nonzero;stroke:none"
           d="m 0,0 c 0,0 -4.94,13.879 -20.227,7.46 -19.742,-8.289 -38.148,-22.413 -30.204,-53.883 13.392,-53.054 2.005,-79.115 14.44,-82.069 12.434,-2.952 29.027,48.081 29.027,48.081 z" />
      </g>
      <g
         transform="matrix(0.35277777,0,0,-0.35277777,87.819949,108.34396)"
         id="g4195">
        <path
           inkscape:connector-curvature="0"
           id="path4197"
           style="fill:#ff9a82;fill-opacity:1;fill-rule:nonzero;stroke:none"
           d="m 0,0 c 0,0 11.867,-31.979 30.366,-22.361 18.497,9.617 -4.554,39.28 -4.554,39.28 z" />
      </g>
      <g
         id="g4199"
         transform="matrix(0.35277777,0,0,-0.35277777,9.5737386,210.39801)">
        <g
           id="g4201" />
        <g
           id="g4213">
          <g
             style="opacity:0.69999701"
             id="g4211"
             clip-path="url(#clipPath4205)">
            <g
               id="g4209"
               transform="translate(234.541,289.9023)">
              <path
                 inkscape:connector-curvature="0"
                 id="path4207"
                 style="fill:#bf7462;fill-opacity:1;fill-rule:nonzero;stroke:none"
                 d="m 0,0 c 0,0 9.997,-7.893 13.154,-15.259 0,0 -1.052,12.628 -8.419,20.521" />
            </g>
          </g>
        </g>
      </g>
      <g
         transform="matrix(0.35277777,0,0,-0.35277777,85.558749,57.488815)"
         id="g4215">
        <path
           inkscape:connector-curvature="0"
           id="path4217"
           style="fill:#ffbf6e;fill-opacity:1;fill-rule:nonzero;stroke:none"
           d="m 0,0 c -40.163,-0.646 -110.11,-32.572 -61.168,-109.782 48.941,-77.21 102.013,-31.2 119.48,7.404 C 75.778,-63.772 75.106,1.208 0,0" />
      </g>
      <g
         transform="matrix(0.35277777,0,0,-0.35277777,72.015399,77.866565)"
         id="g4219">
        <path
           inkscape:connector-curvature="0"
           id="path4221"
           style="fill:#613e35;fill-opacity:1;fill-rule:nonzero;stroke:none"
           d="M 0,0 C -10,0 -10,-11.305 0,-11.305 7,-11.305 7,0 0,0" />
      </g>
      <g
         transform="matrix(0.35277777,0,0,-0.35277777,93.182069,77.540315)"
         id="g4223">
        <path
           inkscape:connector-curvature="0"
           id="path4225"
           style="fill:#613e35;fill-opacity:1;fill-rule:nonzero;stroke:none"
           d="M 0,0 C -7,0 -7,-12.326 0,-12.326 9,-12.326 9,0 0,0" />
      </g>
      <g
         transform="matrix(0.35277777,0,0,-0.35277777,83.203679,68.455265)"
         id="g4227">
        <path
           inkscape:connector-curvature="0"
           id="path4229"
           style="fill:#ffe5c5;fill-opacity:1;fill-rule:nonzero;stroke:none"
           d="m 0,0 -6.767,-54.713 c 0,0 -46.23,-7.311 -37.272,-35.645 8.91,-28.186 36.507,-31.087 47.249,-31.087 16.581,0 37.166,9.534 41.795,31.087 4.629,21.552 -16.095,33.987 -35.162,34.816 z" />
      </g>
      <g
         transform="matrix(0.35277777,0,0,-0.35277777,85.075059,104.41447)"
         id="g4231">
        <path
           inkscape:connector-curvature="0"
           id="path4233"
           style="fill:#613e35;fill-opacity:1;fill-rule:nonzero;stroke:none"
           d="m 0,0 c 0,0 17.058,21.757 9.838,26.836 -7.22,5.079 -33.99,4.209 -33.99,4.209 6.788,2.105 35.168,1.579 39.395,-1.578 C 19.469,26.31 9.472,6.841 0,0 m -7.545,36.749 c -15.648,0 -35.282,-3.133 -19.65,-27.135 15.632,-24.004 30.266,-19.83 43.832,3.131 13.567,22.96 -6.448,24.004 -24.182,24.004" />
      </g>
      <g
         transform="matrix(0.35277777,0,0,-0.35277777,90.452339,94.019236)"
         id="g4235">
        <path
           inkscape:connector-curvature="0"
           id="path4237"
           style="fill:#613e35;fill-opacity:1;fill-rule:nonzero;stroke:none"
           d="m 0,0 c -4.227,3.157 -32.606,3.684 -39.395,1.578 0,0 26.77,0.87 33.99,-4.209 7.22,-5.079 -9.838,-26.836 -9.838,-26.836 C -5.771,-22.626 4.226,-3.157 0,0" />
      </g>
      <g
         id="g4239"
         transform="matrix(0.35277777,0,0,-0.35277777,9.5737386,210.39801)">
        <g
           id="g4241" />
        <g
           id="g4253">
          <g
             id="g4251"
             clip-path="url(#clipPath4245)">
            <g
               id="g4249"
               transform="translate(229.2622,329.8926)">
              <path
                 inkscape:connector-curvature="0"
                 id="path4247"
                 style="fill:#cc8e11;fill-opacity:1;fill-rule:nonzero;stroke:none"
                 d="m 0,0 c -4.227,3.157 -32.606,3.684 -39.395,1.578 0,0 26.77,0.87 33.99,-4.209 7.22,-5.079 -9.838,-26.836 -9.838,-26.836 C -5.771,-22.626 4.226,-3.157 0,0" />
            </g>
          </g>
        </g>
      </g>
      <g
         transform="matrix(0.35277777,0,0,-0.35277777,95.242399,107.18159)"
         id="g4255">
        <path
           inkscape:connector-curvature="0"
           id="path4257"
           style="fill:#613e35;fill-opacity:1;fill-rule:nonzero;stroke:none"
           d="m 0,0 c 0,0 1.611,1.497 3.522,4.062 0.499,0.621 0.945,1.369 1.477,2.103 0.459,0.788 1,1.577 1.448,2.459 0.233,0.435 0.47,0.877 0.71,1.324 0.204,0.466 0.414,0.934 0.638,1.4 0.48,0.918 0.774,1.934 1.164,2.907 0.363,0.984 0.625,2.006 0.94,2.991 0.21,1.015 0.456,2.006 0.676,2.973 0.137,0.98 0.285,1.928 0.433,2.832 0.091,0.45 0.099,0.895 0.137,1.324 0.038,0.431 0.074,0.847 0.109,1.246 0.059,0.8 0.168,1.538 0.152,2.192 0.019,0.66 0.036,1.234 0.05,1.707 0.039,0.95 0.08,1.501 0.08,1.501 0,0 0.127,-0.528 0.316,-1.466 0.091,-0.47 0.209,-1.042 0.319,-1.703 0.145,-0.66 0.181,-1.412 0.231,-2.236 0.034,-0.824 0.156,-1.723 0.095,-2.672 -0.05,-0.947 -0.084,-1.954 -0.181,-2.99 C 12.139,18.93 11.998,17.857 11.774,16.784 11.465,15.732 11.211,14.644 10.845,13.59 10.41,12.562 10.069,11.493 9.541,10.526 9.3,10.033 9.048,9.55 8.796,9.075 8.512,8.618 8.231,8.167 7.955,7.724 7.436,6.816 6.762,6.052 6.198,5.285 5.571,4.564 4.996,3.872 4.382,3.308 4.082,3.021 3.804,2.738 3.522,2.485 3.232,2.244 2.957,2.015 2.698,1.8 2.185,1.367 1.693,1.041 1.301,0.767 0.497,0.233 0,0 0,0" />
      </g>
      <g
         transform="matrix(0.35277777,0,0,-0.35277777,54.475039,126.8548)"
         id="g4259">
        <path
           inkscape:connector-curvature="0"
           id="path4261"
           style="fill:#613e35;fill-opacity:1;fill-rule:nonzero;stroke:none"
           d="m 0,0 c 0,0 -0.456,0.368 -1.103,1.165 -0.642,0.794 -1.496,2.02 -2.152,3.704 -0.336,0.838 -0.624,1.79 -0.782,2.837 -0.167,1.043 -0.226,2.177 -0.114,3.35 0.039,0.588 0.194,1.17 0.301,1.768 0.13,0.593 0.362,1.164 0.558,1.753 0.471,1.14 1.065,2.254 1.804,3.246 l 0.269,0.379 0.135,0.19 0.034,0.046 0.017,0.024 0.071,0.088 0.071,0.079 0.569,0.632 c 0.372,0.423 0.737,0.83 1.26,1.257 0.487,0.411 0.953,0.862 1.479,1.159 0.52,0.317 0.994,0.682 1.554,0.9 0.543,0.24 1.055,0.516 1.619,0.644 0.546,0.167 1.079,0.312 1.619,0.374 0.53,0.1 1.048,0.149 1.553,0.143 0.501,0.027 0.983,-0.035 1.439,-0.077 0.915,-0.089 1.722,-0.318 2.411,-0.549 0.691,-0.236 1.257,-0.519 1.709,-0.763 0.902,-0.504 1.328,-0.909 1.328,-0.909 0,0 -0.139,0.039 -0.4,0.109 -0.259,0.07 -0.648,0.141 -1.129,0.238 -0.486,0.083 -1.077,0.149 -1.741,0.201 -0.669,0.029 -1.414,0.03 -2.204,-0.05 C 9.781,21.889 9.373,21.856 8.963,21.741 8.759,21.689 8.55,21.654 8.339,21.611 8.135,21.547 7.927,21.48 7.716,21.414 7.291,21.301 6.88,21.111 6.468,20.91 6.045,20.739 5.65,20.481 5.244,20.241 4.441,19.746 3.654,19.109 2.986,18.45 2.637,18.17 2.275,17.714 1.901,17.286 L 1.342,16.645 1.272,16.564 c 0.106,0.126 0.026,0.03 0.048,0.055 L 1.313,16.609 1.299,16.589 1.272,16.549 1.164,16.389 0.945,16.069 C 0.309,15.249 -0.171,14.348 -0.613,13.451 -0.78,12.983 -1.012,12.538 -1.154,12.071 -1.269,11.598 -1.439,11.139 -1.527,10.67 -1.701,9.731 -1.82,8.799 -1.813,7.897 -1.797,6.999 -1.735,6.132 -1.604,5.332 -1.469,4.534 -1.307,3.794 -1.125,3.144 -0.939,2.495 -0.758,1.924 -0.588,1.46 -0.249,0.529 0,0 0,0" />
      </g>
      <g
         transform="matrix(0.35277777,0,0,-0.35277777,51.417869,126.81275)"
         id="g4263">
        <path
           inkscape:connector-curvature="0"
           id="path4265"
           style="fill:#613e35;fill-opacity:1;fill-rule:nonzero;stroke:none"
           d="m 0,0 c 0,0 -0.55,0.489 -1.331,1.519 -0.385,0.515 -0.846,1.157 -1.284,1.95 -0.45,0.786 -0.916,1.709 -1.295,2.775 -0.398,1.059 -0.733,2.256 -0.914,3.564 -0.133,0.649 -0.116,1.334 -0.179,2.031 -0.058,0.699 0.063,1.413 0.095,2.142 0.064,0.729 0.258,1.451 0.39,2.196 0.161,0.737 0.453,1.446 0.705,2.174 0.608,1.407 1.334,2.796 2.251,4.039 l 0.334,0.473 0.168,0.237 0.042,0.058 0.021,0.029 0.011,0.015 0.065,0.08 0.09,0.101 0.721,0.803 c 0.473,0.537 0.936,1.061 1.577,1.583 0.6,0.508 1.17,1.069 1.827,1.438 0.645,0.396 1.235,0.848 1.923,1.131 0.669,0.308 1.3,0.663 1.997,0.828 0.338,0.102 0.673,0.202 1.003,0.302 0.331,0.091 0.674,0.128 1.002,0.191 0.331,0.054 0.655,0.118 0.975,0.158 0.324,0.017 0.642,0.033 0.955,0.048 0.624,0.046 1.226,-0.019 1.797,-0.06 1.144,-0.09 2.16,-0.351 3.033,-0.617 0.435,-0.142 0.834,-0.292 1.199,-0.437 0.355,-0.166 0.68,-0.318 0.975,-0.456 1.154,-0.596 1.713,-1.078 1.713,-1.078 0,0 -0.174,0.055 -0.499,0.159 -0.324,0.101 -0.809,0.213 -1.415,0.356 -0.613,0.128 -1.36,0.241 -2.206,0.332 -0.852,0.063 -1.806,0.095 -2.826,0.018 C 12.411,28.03 11.883,28.003 11.351,27.868 11.085,27.81 10.813,27.768 10.54,27.718 10.27,27.648 10,27.558 9.727,27.478 9.455,27.389 9.172,27.328 8.902,27.215 8.635,27.097 8.365,26.978 8.092,26.856 7.538,26.644 7.017,26.321 6.48,26.019 5.418,25.396 4.405,24.561 3.514,23.7 3.047,23.325 2.588,22.752 2.113,22.21 L 1.402,21.397 1.313,21.296 c 0.106,0.126 0.024,0.027 0.046,0.052 L 1.35,21.335 1.332,21.31 1.297,21.258 1.155,21.05 0.871,20.638 C 0.043,19.577 -0.595,18.408 -1.145,17.23 -1.354,16.617 -1.651,16.036 -1.835,15.428 -1.984,14.811 -2.204,14.212 -2.301,13.599 -2.501,12.373 -2.632,11.164 -2.601,10 -2.562,8.839 -2.453,7.727 -2.259,6.706 -2.063,5.687 -1.826,4.75 -1.569,3.929 -1.309,3.109 -1.052,2.394 -0.815,1.813 -0.343,0.649 0,0 0,0" />
      </g>
    </g>
  </g>
</svg>
